<svg width="15" height="11" viewBox="0 0 15 11" fill="none" xmlns="http://www.w3.org/2000/svg">
<path d="M12.6443 1.05171C11.7576 0.638372 10.7976 0.338372 9.7976 0.165039C9.78002 0.16529 9.76325 0.172478 9.75094 0.185039C9.63094 0.405039 9.49094 0.691706 9.3976 0.911706C8.33693 0.751806 7.25828 0.751806 6.1976 0.911706C6.10427 0.685039 5.96427 0.405039 5.8376 0.185039C5.83094 0.171706 5.81094 0.165039 5.79094 0.165039C4.79094 0.338372 3.8376 0.638372 2.94427 1.05171C2.9376 1.05171 2.93094 1.05837 2.92427 1.06504C1.11094 3.77837 0.610938 6.41837 0.857604 9.03171C0.857604 9.04504 0.864271 9.05837 0.877604 9.06504C2.0776 9.94504 3.23094 10.4784 4.37094 10.8317C4.39094 10.8384 4.41094 10.8317 4.4176 10.8184C4.68427 10.4517 4.92427 10.065 5.13094 9.65837C5.14427 9.63171 5.13094 9.60504 5.10427 9.59837C4.72427 9.45171 4.36427 9.27837 4.01094 9.07837C3.98427 9.06504 3.98427 9.02504 4.00427 9.00504C4.0776 8.95171 4.15094 8.89171 4.22427 8.83837C4.2376 8.82504 4.2576 8.82504 4.27094 8.83171C6.56427 9.87837 9.0376 9.87837 11.3043 8.83171C11.3176 8.82504 11.3376 8.82504 11.3509 8.83837C11.4243 8.89837 11.4976 8.95171 11.5709 9.01171C11.5976 9.03171 11.5976 9.07171 11.5643 9.08504C11.2176 9.29171 10.8509 9.45837 10.4709 9.60504C10.4443 9.61171 10.4376 9.64504 10.4443 9.66504C10.6576 10.0717 10.8976 10.4584 11.1576 10.825C11.1776 10.8317 11.1976 10.8384 11.2176 10.8317C12.3643 10.4784 13.5176 9.94504 14.7176 9.06504C14.7309 9.05837 14.7376 9.04504 14.7376 9.03171C15.0309 6.01171 14.2509 3.39171 12.6709 1.06504C12.6643 1.05837 12.6576 1.05171 12.6443 1.05171ZM5.4776 7.43837C4.79094 7.43837 4.2176 6.80504 4.2176 6.02504C4.2176 5.24504 4.7776 4.61171 5.4776 4.61171C6.18427 4.61171 6.74427 5.25171 6.7376 6.02504C6.7376 6.80504 6.1776 7.43837 5.4776 7.43837ZM10.1243 7.43837C9.4376 7.43837 8.86427 6.80504 8.86427 6.02504C8.86427 5.24504 9.42427 4.61171 10.1243 4.61171C10.8309 4.61171 11.3909 5.25171 11.3843 6.02504C11.3843 6.80504 10.8309 7.43837 10.1243 7.43837Z" fill="white"/>
</svg>
