<svg width="872" height="591" viewBox="0 0 872 591" fill="none" xmlns="http://www.w3.org/2000/svg">
<g clip-path="url(#clip0_39600_43371)">
<g opacity="0.7">
<path opacity="0.11" d="M131.931 214.758C132.575 214.837 133.161 214.38 133.241 213.736C133.32 213.091 132.862 212.505 132.218 212.426C131.574 212.347 130.987 212.804 130.908 213.448C130.829 214.092 131.287 214.679 131.931 214.758Z" fill="white"/>
<path d="M134.927 221.634C135.41 221.693 135.849 221.35 135.909 220.867C135.968 220.384 135.625 219.944 135.142 219.885C134.659 219.826 134.219 220.169 134.16 220.652C134.1 221.135 134.444 221.574 134.927 221.634Z" fill="white"/>
<path d="M155.671 211.765C156.154 211.824 156.593 211.481 156.653 210.998C156.712 210.515 156.369 210.075 155.886 210.016C155.403 209.956 154.964 210.3 154.904 210.783C154.845 211.266 155.188 211.705 155.671 211.765Z" fill="white"/>
<path d="M106.269 204.498C106.752 204.558 107.192 204.214 107.252 203.731C107.311 203.248 106.968 202.809 106.485 202.749C106.002 202.69 105.562 203.033 105.503 203.516C105.443 203.999 105.787 204.439 106.269 204.498Z" fill="white"/>
<path opacity="0.11" d="M75.6926 214.934C76.3366 215.013 76.923 214.555 77.0023 213.911C77.0816 213.267 76.6238 212.681 75.9797 212.602C75.3356 212.522 74.7492 212.98 74.6699 213.624C74.5906 214.268 75.0485 214.855 75.6926 214.934Z" fill="white"/>
<path d="M66.2009 200.748C66.5226 200.787 66.8156 200.559 66.8552 200.237C66.8948 199.915 66.6661 199.622 66.3443 199.582C66.0225 199.543 65.7296 199.772 65.69 200.093C65.6504 200.415 65.8791 200.708 66.2009 200.748Z" fill="white"/>
<path d="M127.381 237.272C127.702 237.312 127.995 237.083 128.035 236.761C128.074 236.439 127.846 236.146 127.524 236.107C127.202 236.067 126.909 236.296 126.87 236.618C126.83 236.94 127.059 237.232 127.381 237.272Z" fill="white"/>
<path d="M254.45 252.919C254.772 252.958 255.065 252.729 255.104 252.408C255.144 252.086 254.915 251.793 254.593 251.753C254.272 251.714 253.979 251.942 253.939 252.264C253.899 252.586 254.128 252.879 254.45 252.919Z" fill="white"/>
<path d="M321.855 229.261C322.177 229.301 322.47 229.072 322.509 228.75C322.549 228.429 322.32 228.136 321.999 228.096C321.677 228.057 321.384 228.285 321.344 228.607C321.305 228.929 321.533 229.222 321.855 229.261Z" fill="white"/>
<path d="M339.353 274.612C339.675 274.652 339.968 274.423 340.008 274.101C340.047 273.779 339.818 273.486 339.497 273.447C339.175 273.407 338.882 273.636 338.842 273.958C338.803 274.279 339.031 274.572 339.353 274.612Z" fill="white"/>
<path opacity="0.11" d="M60.0183 207.676C60.34 207.716 60.633 207.487 60.6726 207.165C60.7122 206.844 60.4835 206.551 60.1617 206.511C59.8399 206.472 59.547 206.7 59.5074 207.022C59.4678 207.344 59.6965 207.637 60.0183 207.676Z" fill="white"/>
<path opacity="0.11" d="M123.637 258.118C123.959 258.157 124.252 257.929 124.292 257.607C124.331 257.285 124.103 256.992 123.781 256.953C123.459 256.913 123.166 257.142 123.127 257.463C123.087 257.785 123.316 258.078 123.637 258.118Z" fill="white"/>
<path opacity="0.11" d="M236.261 266.061C236.583 266.101 236.876 265.872 236.916 265.55C236.955 265.228 236.727 264.936 236.405 264.896C236.083 264.856 235.79 265.085 235.751 265.407C235.711 265.729 235.94 266.022 236.261 266.061Z" fill="white"/>
<path d="M101.619 172.563C101.941 172.603 102.234 172.374 102.273 172.052C102.313 171.73 102.084 171.438 101.762 171.398C101.441 171.358 101.148 171.587 101.108 171.909C101.068 172.231 101.297 172.523 101.619 172.563Z" fill="white"/>
<path d="M191.525 182.449C191.847 182.488 192.14 182.26 192.179 181.938C192.219 181.616 191.99 181.323 191.669 181.284C191.347 181.244 191.054 181.473 191.014 181.795C190.975 182.116 191.203 182.409 191.525 182.449Z" fill="white"/>
<path d="M55.383 221.309C55.7048 221.349 55.9977 221.12 56.0373 220.798C56.0769 220.477 55.8482 220.184 55.5264 220.144C55.2047 220.104 54.9117 220.333 54.8721 220.655C54.8325 220.977 55.0612 221.27 55.383 221.309Z" fill="white"/>
<path opacity="0.3" d="M14.5808 216.287C14.9025 216.326 15.1955 216.098 15.2351 215.776C15.2747 215.454 15.046 215.161 14.7242 215.122C14.4024 215.082 14.1095 215.311 14.0699 215.632C14.0303 215.954 14.259 216.247 14.5808 216.287Z" fill="white"/>
<path opacity="0.3" d="M110.393 187.847C110.715 187.887 111.008 187.658 111.048 187.336C111.087 187.015 110.858 186.722 110.537 186.682C110.215 186.642 109.922 186.871 109.882 187.193C109.843 187.515 110.072 187.808 110.393 187.847Z" fill="white"/>
<path opacity="0.3" d="M63.9304 233.606C64.2521 233.646 64.5451 233.417 64.5847 233.095C64.6243 232.773 64.3956 232.48 64.0738 232.441C63.752 232.401 63.4591 232.63 63.4195 232.952C63.3799 233.273 63.6086 233.566 63.9304 233.606Z" fill="white"/>
<path opacity="0.3" d="M343.348 232.501C343.67 232.54 343.963 232.311 344.003 231.99C344.042 231.668 343.814 231.375 343.492 231.335C343.17 231.296 342.877 231.525 342.837 231.846C342.798 232.168 343.027 232.461 343.348 232.501Z" fill="white"/>
<path opacity="0.11" d="M252.449 197.047C252.771 197.087 253.064 196.858 253.103 196.537C253.143 196.215 252.914 195.922 252.592 195.882C252.271 195.843 251.978 196.071 251.938 196.393C251.898 196.715 252.127 197.008 252.449 197.047Z" fill="white"/>
<path opacity="0.11" d="M324.528 255.625C324.85 255.664 325.143 255.436 325.182 255.114C325.222 254.792 324.993 254.499 324.671 254.459C324.35 254.42 324.057 254.649 324.017 254.97C323.978 255.292 324.206 255.585 324.528 255.625Z" fill="white"/>
<path opacity="0.3" d="M176.412 242.718C177.056 242.797 177.643 242.34 177.722 241.696C177.801 241.051 177.343 240.465 176.699 240.386C176.055 240.306 175.469 240.764 175.39 241.408C175.31 242.053 175.768 242.639 176.412 242.718Z" fill="white"/>
<path opacity="0.11" d="M212.957 229.467C213.601 229.546 214.188 229.089 214.267 228.445C214.346 227.8 213.888 227.214 213.244 227.135C212.6 227.055 212.014 227.513 211.935 228.157C211.855 228.801 212.313 229.388 212.957 229.467Z" fill="white"/>
<path d="M215.178 209.032C215.661 209.092 216.1 208.748 216.16 208.265C216.219 207.783 215.876 207.343 215.393 207.283C214.91 207.224 214.47 207.567 214.411 208.05C214.351 208.533 214.695 208.973 215.178 209.032Z" fill="white"/>
<path d="M167.427 265.284C167.91 265.344 168.349 265 168.409 264.517C168.468 264.034 168.125 263.595 167.642 263.535C167.159 263.476 166.719 263.819 166.66 264.302C166.6 264.785 166.944 265.225 167.427 265.284Z" fill="white"/>
<path d="M359.505 300.763C359.988 300.822 360.427 300.479 360.487 299.996C360.546 299.513 360.203 299.073 359.72 299.014C359.237 298.954 358.798 299.298 358.738 299.781C358.679 300.264 359.022 300.703 359.505 300.763Z" fill="white"/>
<path d="M185.767 217.246C186.25 217.306 186.69 216.962 186.75 216.479C186.809 215.996 186.466 215.557 185.983 215.497C185.5 215.438 185.06 215.781 185.001 216.264C184.941 216.747 185.285 217.187 185.767 217.246Z" fill="white"/>
<path d="M79.0356 247.893C79.5185 247.952 79.9582 247.609 80.0176 247.126C80.0771 246.643 79.7338 246.203 79.2509 246.144C78.768 246.084 78.3283 246.428 78.2688 246.911C78.2094 247.393 78.5527 247.833 79.0356 247.893Z" fill="white"/>
<path d="M222.835 291.039C223.318 291.098 223.758 290.755 223.817 290.272C223.876 289.789 223.533 289.35 223.05 289.29C222.567 289.231 222.128 289.574 222.068 290.057C222.009 290.54 222.352 290.98 222.835 291.039Z" fill="white"/>
<path d="M382.173 270.416C382.656 270.475 383.095 270.132 383.155 269.649C383.214 269.166 382.871 268.727 382.388 268.667C381.905 268.608 381.465 268.951 381.406 269.434C381.347 269.917 381.69 270.357 382.173 270.416Z" fill="white"/>
<path d="M400.11 240.081C400.593 240.141 401.033 239.797 401.092 239.314C401.152 238.831 400.808 238.392 400.326 238.332C399.843 238.273 399.403 238.616 399.344 239.099C399.284 239.582 399.627 240.022 400.11 240.081Z" fill="white"/>
<path opacity="0.3" d="M263.196 215.536C263.841 215.615 264.427 215.157 264.506 214.513C264.586 213.869 264.128 213.282 263.484 213.203C262.84 213.124 262.253 213.582 262.174 214.226C262.095 214.87 262.552 215.456 263.196 215.536Z" fill="white"/>
<path d="M268.287 174.15C268.931 174.229 269.518 173.771 269.597 173.127C269.676 172.483 269.218 171.897 268.574 171.817C267.93 171.738 267.344 172.196 267.265 172.84C267.185 173.484 267.643 174.071 268.287 174.15Z" fill="white"/>
<path d="M291.635 232.054C292.118 232.113 292.557 231.77 292.617 231.287C292.676 230.804 292.333 230.364 291.85 230.305C291.367 230.245 290.927 230.589 290.868 231.072C290.808 231.555 291.152 231.994 291.635 232.054Z" fill="white"/>
<path opacity="0.3" d="M322.703 212.802C323.347 212.881 323.934 212.424 324.013 211.779C324.092 211.135 323.635 210.549 322.99 210.47C322.346 210.39 321.76 210.848 321.681 211.492C321.601 212.136 322.059 212.723 322.703 212.802Z" fill="white"/>
<path opacity="0.3" d="M375.314 261.29C375.958 261.37 376.544 260.912 376.623 260.268C376.703 259.624 376.245 259.037 375.601 258.958C374.957 258.879 374.37 259.337 374.291 259.981C374.212 260.625 374.67 261.211 375.314 261.29Z" fill="white"/>
<path opacity="0.3" d="M306.973 254.058C307.617 254.137 308.203 253.679 308.283 253.035C308.362 252.391 307.904 251.805 307.26 251.726C306.616 251.646 306.029 252.104 305.95 252.748C305.871 253.392 306.329 253.979 306.973 254.058Z" fill="white"/>
<path opacity="0.11" d="M353.568 240.862C354.212 240.941 354.798 240.483 354.877 239.839C354.957 239.195 354.499 238.609 353.855 238.529C353.211 238.45 352.624 238.908 352.545 239.552C352.466 240.196 352.923 240.782 353.568 240.862Z" fill="white"/>
<path opacity="0.3" d="M13.7033 175.351C14.3474 175.43 14.9338 174.972 15.0131 174.328C15.0923 173.684 14.6345 173.098 13.9904 173.019C13.3463 172.939 12.7599 173.397 12.6807 174.041C12.6014 174.685 13.0592 175.272 13.7033 175.351Z" fill="white"/>
<path opacity="0.11" d="M-0.598957 161.756C0.0451162 161.836 0.631525 161.378 0.710812 160.734C0.7901 160.09 0.332246 159.503 -0.311827 159.424C-0.9559 159.345 -1.5423 159.802 -1.62159 160.446C-1.70088 161.091 -1.24303 161.677 -0.598957 161.756Z" fill="white"/>
<path d="M26.6454 202.387C27.1284 202.446 27.568 202.103 27.6275 201.62C27.6869 201.137 27.3436 200.697 26.8607 200.638C26.3778 200.578 25.9381 200.922 25.8787 201.405C25.8192 201.888 26.1625 202.327 26.6454 202.387Z" fill="white"/>
<path opacity="0.11" d="M355.415 61.5746C356.059 61.6539 356.646 61.196 356.725 60.552C356.804 59.9079 356.346 59.3215 355.702 59.2422C355.058 59.1629 354.472 59.6208 354.393 60.2648C354.313 60.9089 354.771 61.4953 355.415 61.5746Z" fill="white"/>
<path d="M358.411 68.4512C358.894 68.5106 359.334 68.1673 359.393 67.6844C359.453 67.2015 359.109 66.7618 358.626 66.7024C358.143 66.6429 357.704 66.9862 357.644 67.4691C357.585 67.9521 357.928 68.3917 358.411 68.4512Z" fill="white"/>
<path d="M379.155 58.582C379.638 58.6415 380.078 58.2982 380.137 57.8153C380.197 57.3324 379.853 56.8927 379.371 56.8332C378.888 56.7738 378.448 57.1171 378.388 57.6C378.329 58.0829 378.672 58.5226 379.155 58.582Z" fill="white"/>
<path d="M329.753 51.3135C330.236 51.3729 330.675 51.0296 330.735 50.5467C330.794 50.0638 330.451 49.6241 329.968 49.5647C329.485 49.5052 329.046 49.8485 328.986 50.3314C328.927 50.8144 329.27 51.254 329.753 51.3135Z" fill="white"/>
<path opacity="0.11" d="M299.177 61.7504C299.821 61.8297 300.407 61.3718 300.487 60.7278C300.566 60.0837 300.108 59.4973 299.464 59.418C298.82 59.3387 298.234 59.7966 298.154 60.4406C298.075 61.0847 298.533 61.6711 299.177 61.7504Z" fill="white"/>
<path d="M289.683 47.565C290.005 47.6046 290.298 47.3759 290.338 47.0542C290.377 46.7324 290.149 46.4395 289.827 46.3998C289.505 46.3602 289.212 46.589 289.172 46.9107C289.133 47.2325 289.362 47.5254 289.683 47.565Z" fill="white"/>
<path d="M350.863 84.0895C351.185 84.1291 351.478 83.9004 351.517 83.5786C351.557 83.2568 351.328 82.9639 351.006 82.9243C350.685 82.8847 350.392 83.1134 350.352 83.4351C350.312 83.7569 350.541 84.0499 350.863 84.0895Z" fill="white"/>
<path d="M477.932 99.7359C478.254 99.7756 478.547 99.5468 478.587 99.2251C478.626 98.9033 478.398 98.6104 478.076 98.5707C477.754 98.5311 477.461 98.7599 477.421 99.0816C477.382 99.4034 477.611 99.6963 477.932 99.7359Z" fill="white"/>
<path d="M545.34 76.0787C545.661 76.1183 545.954 75.8896 545.994 75.5678C546.033 75.2461 545.805 74.9531 545.483 74.9135C545.161 74.8739 544.868 75.1026 544.829 75.4244C544.789 75.7462 545.018 76.0391 545.34 76.0787Z" fill="white"/>
<path d="M562.835 121.43C563.156 121.47 563.449 121.241 563.489 120.919C563.529 120.598 563.3 120.305 562.978 120.265C562.656 120.225 562.363 120.454 562.324 120.776C562.284 121.098 562.513 121.391 562.835 121.43Z" fill="white"/>
<path d="M158.56 45.6227C158.882 45.6623 159.175 45.4336 159.215 45.1118C159.254 44.79 159.025 44.4971 158.704 44.4575C158.382 44.4179 158.089 44.6466 158.049 44.9684C158.01 45.2901 158.238 45.5831 158.56 45.6227Z" fill="white"/>
<path opacity="0.11" d="M153.696 13.0719C154.018 13.1115 154.311 12.8827 154.35 12.561C154.39 12.2392 154.161 11.9463 153.839 11.9067C153.518 11.8671 153.225 12.0958 153.185 12.4175C153.146 12.7393 153.374 13.0323 153.696 13.0719Z" fill="white"/>
<path opacity="0.11" d="M126.984 23.3941C127.306 23.4337 127.599 23.205 127.638 22.8833C127.678 22.5615 127.449 22.2686 127.128 22.2289C126.806 22.1893 126.513 22.4181 126.473 22.7398C126.434 23.0616 126.662 23.3545 126.984 23.3941Z" fill="white"/>
<path opacity="0.11" d="M141.912 60.735C142.234 60.7746 142.527 60.5459 142.566 60.2241C142.606 59.9023 142.377 59.6094 142.055 59.5698C141.733 59.5302 141.441 59.7589 141.401 60.0807C141.361 60.4024 141.59 60.6953 141.912 60.735Z" fill="white"/>
<path opacity="0.11" d="M283.503 54.4937C283.824 54.5334 284.117 54.3046 284.157 53.9829C284.197 53.6611 283.968 53.3682 283.646 53.3286C283.324 53.2889 283.031 53.5177 282.992 53.8394C282.952 54.1612 283.181 54.4541 283.503 54.4937Z" fill="white"/>
<path opacity="0.11" d="M347.121 104.934C347.443 104.974 347.736 104.745 347.775 104.423C347.815 104.102 347.586 103.809 347.264 103.769C346.942 103.729 346.65 103.958 346.61 104.28C346.57 104.602 346.799 104.895 347.121 104.934Z" fill="white"/>
<path opacity="0.11" d="M459.746 112.879C460.068 112.918 460.361 112.689 460.4 112.368C460.44 112.046 460.211 111.753 459.889 111.713C459.567 111.674 459.275 111.902 459.235 112.224C459.195 112.546 459.424 112.839 459.746 112.879Z" fill="white"/>
<path opacity="0.3" d="M187.169 34.3522C187.49 34.3918 187.783 34.163 187.823 33.8413C187.863 33.5195 187.634 33.2266 187.312 33.187C186.99 33.1473 186.697 33.3761 186.658 33.6978C186.618 34.0196 186.847 34.3126 187.169 34.3522Z" fill="white"/>
<path d="M325.104 19.3795C325.426 19.4191 325.719 19.1904 325.759 18.8686C325.798 18.5469 325.569 18.2539 325.248 18.2143C324.926 18.1747 324.633 18.4034 324.593 18.7252C324.554 19.0469 324.782 19.3399 325.104 19.3795Z" fill="white"/>
<path d="M415.009 29.2652C415.331 29.3049 415.624 29.0761 415.664 28.7544C415.703 28.4326 415.475 28.1397 415.153 28.1C414.831 28.0604 414.538 28.2892 414.499 28.6109C414.459 28.9327 414.688 29.2256 415.009 29.2652Z" fill="white"/>
<path d="M278.867 68.1256C279.189 68.1652 279.482 67.9365 279.521 67.6147C279.561 67.2929 279.332 67 279.01 66.9604C278.689 66.9208 278.396 67.1495 278.356 67.4712C278.316 67.793 278.545 68.086 278.867 68.1256Z" fill="white"/>
<path opacity="0.3" d="M238.064 63.1031C238.386 63.1427 238.679 62.914 238.718 62.5922C238.758 62.2705 238.529 61.9775 238.208 61.9379C237.886 61.8983 237.593 62.127 237.553 62.4488C237.514 62.7706 237.742 63.0635 238.064 63.1031Z" fill="white"/>
<path opacity="0.11" d="M194.723 21.0826C195.045 21.1222 195.338 20.8935 195.378 20.5718C195.417 20.25 195.189 19.957 194.867 19.9174C194.545 19.8778 194.252 20.1065 194.212 20.4283C194.173 20.7501 194.402 21.043 194.723 21.0826Z" fill="white"/>
<path opacity="0.3" d="M333.879 34.6637C334.2 34.7033 334.493 34.4746 334.533 34.1528C334.573 33.831 334.344 33.5381 334.022 33.4985C333.7 33.4589 333.407 33.6876 333.368 34.0094C333.328 34.3311 333.557 34.6241 333.879 34.6637Z" fill="white"/>
<path opacity="0.3" d="M287.416 80.4225C287.737 80.4621 288.03 80.2334 288.07 79.9116C288.11 79.5898 287.881 79.2969 287.559 79.2573C287.237 79.2177 286.944 79.4464 286.905 79.7682C286.865 80.0899 287.094 80.3829 287.416 80.4225Z" fill="white"/>
<path opacity="0.3" d="M216.169 77.567C216.49 77.6066 216.783 77.3779 216.823 77.0561C216.863 76.7343 216.634 76.4414 216.312 76.4018C215.99 76.3622 215.697 76.5909 215.658 76.9127C215.618 77.2344 215.847 77.5274 216.169 77.567Z" fill="white"/>
<path opacity="0.3" d="M204.073 36.4371C204.395 36.4767 204.688 36.248 204.727 35.9262C204.767 35.6045 204.538 35.3115 204.216 35.2719C203.895 35.2323 203.602 35.461 203.562 35.7828C203.522 36.1046 203.751 36.3975 204.073 36.4371Z" fill="white"/>
<path opacity="0.3" d="M566.833 79.318C567.154 79.3576 567.447 79.1289 567.487 78.8071C567.527 78.4853 567.298 78.1924 566.976 78.1528C566.654 78.1132 566.361 78.3419 566.322 78.6637C566.282 78.9854 566.511 79.2784 566.833 79.318Z" fill="white"/>
<path opacity="0.11" d="M475.932 43.8658C476.254 43.9054 476.547 43.6767 476.587 43.3549C476.626 43.0332 476.398 42.7402 476.076 42.7006C475.754 42.661 475.461 42.8897 475.421 43.2115C475.382 43.5333 475.611 43.8262 475.932 43.8658Z" fill="white"/>
<path opacity="0.11" d="M548.01 102.441C548.332 102.481 548.625 102.252 548.665 101.93C548.704 101.608 548.476 101.315 548.154 101.276C547.832 101.236 547.539 101.465 547.5 101.787C547.46 102.108 547.689 102.401 548.01 102.441Z" fill="white"/>
<path opacity="0.3" d="M399.897 89.5355C400.541 89.6148 401.127 89.157 401.206 88.5129C401.286 87.8688 400.828 87.2824 400.184 87.2031C399.54 87.1238 398.953 87.5817 398.874 88.2258C398.795 88.8699 399.253 89.4562 399.897 89.5355Z" fill="white"/>
<path opacity="0.11" d="M436.441 76.2836C437.085 76.3629 437.671 75.905 437.75 75.2609C437.83 74.6169 437.372 74.0305 436.728 73.9512C436.084 73.8719 435.497 74.3297 435.418 74.9738C435.339 75.6179 435.797 76.2043 436.441 76.2836Z" fill="white"/>
<path d="M438.662 55.8486C439.145 55.9081 439.585 55.5648 439.644 55.0819C439.704 54.599 439.36 54.1593 438.877 54.0998C438.394 54.0404 437.955 54.3837 437.895 54.8666C437.836 55.3495 438.179 55.7892 438.662 55.8486Z" fill="white"/>
<path d="M390.912 112.1C391.395 112.159 391.835 111.816 391.894 111.333C391.954 110.85 391.61 110.41 391.127 110.351C390.644 110.291 390.205 110.635 390.145 111.118C390.086 111.6 390.429 112.04 390.912 112.1Z" fill="white"/>
<path d="M582.988 147.579C583.471 147.639 583.911 147.295 583.97 146.812C584.03 146.329 583.686 145.89 583.204 145.83C582.721 145.771 582.281 146.114 582.221 146.597C582.162 147.08 582.505 147.52 582.988 147.579Z" fill="white"/>
<path d="M205.921 91.0977C206.404 91.1571 206.843 90.8138 206.903 90.3309C206.962 89.848 206.619 89.4083 206.136 89.3489C205.653 89.2894 205.214 89.6327 205.154 90.1156C205.095 90.5985 205.438 91.0382 205.921 91.0977Z" fill="white"/>
<path d="M130.054 68.1514C130.537 68.2108 130.976 67.8675 131.036 67.3846C131.095 66.9017 130.752 66.462 130.269 66.4026C129.786 66.3431 129.346 66.6864 129.287 67.1693C129.227 67.6522 129.571 68.0919 130.054 68.1514Z" fill="white"/>
<path d="M123.014 43.6153C123.497 43.6747 123.936 43.3314 123.996 42.8485C124.055 42.3656 123.712 41.9259 123.229 41.8664C122.746 41.807 122.306 42.1503 122.247 42.6332C122.187 43.1161 122.531 43.5558 123.014 43.6153Z" fill="white"/>
<path d="M409.251 64.0635C409.734 64.1229 410.174 63.7796 410.233 63.2967C410.292 62.8138 409.949 62.3741 409.466 62.3147C408.983 62.2552 408.544 62.5985 408.484 63.0814C408.425 63.5644 408.768 64.004 409.251 64.0635Z" fill="white"/>
<path d="M302.52 94.708C303.003 94.7674 303.443 94.4242 303.502 93.9413C303.562 93.4583 303.219 93.0187 302.736 92.9592C302.253 92.8998 301.813 93.2431 301.754 93.726C301.694 94.2089 302.038 94.6485 302.52 94.708Z" fill="white"/>
<path d="M446.318 137.855C446.801 137.915 447.241 137.572 447.3 137.089C447.36 136.606 447.017 136.166 446.534 136.107C446.051 136.047 445.611 136.391 445.552 136.873C445.492 137.356 445.835 137.796 446.318 137.855Z" fill="white"/>
<path d="M605.658 117.232C606.141 117.292 606.581 116.949 606.64 116.466C606.7 115.983 606.356 115.543 605.873 115.484C605.39 115.424 604.951 115.767 604.891 116.25C604.832 116.733 605.175 117.173 605.658 117.232Z" fill="white"/>
<path d="M623.595 86.8994C624.078 86.9589 624.517 86.6156 624.577 86.1326C624.636 85.6497 624.293 85.2101 623.81 85.1506C623.327 85.0912 622.887 85.4344 622.828 85.9174C622.768 86.4003 623.112 86.84 623.595 86.8994Z" fill="white"/>
<path opacity="0.3" d="M486.681 62.3509C487.325 62.4302 487.911 61.9724 487.991 61.3283C488.07 60.6842 487.612 60.0978 486.968 60.0186C486.324 59.9393 485.737 60.3971 485.658 61.0412C485.579 61.6853 486.037 62.2717 486.681 62.3509Z" fill="white"/>
<path d="M491.771 20.9662C492.415 21.0455 493.001 20.5876 493.08 19.9436C493.16 19.2995 492.702 18.7131 492.058 18.6338C491.414 18.5545 490.827 19.0124 490.748 19.6564C490.669 20.3005 491.127 20.8869 491.771 20.9662Z" fill="white"/>
<path d="M515.119 78.8701C515.602 78.9296 516.042 78.5863 516.101 78.1034C516.161 77.6204 515.817 77.1808 515.334 77.1213C514.851 77.0619 514.412 77.4052 514.352 77.8881C514.293 78.371 514.636 78.8107 515.119 78.8701Z" fill="white"/>
<path opacity="0.3" d="M546.188 59.6195C546.832 59.6988 547.418 59.241 547.497 58.5969C547.577 57.9528 547.119 57.3664 546.475 57.2871C545.831 57.2078 545.244 57.6657 545.165 58.3098C545.086 58.9538 545.544 59.5402 546.188 59.6195Z" fill="white"/>
<path opacity="0.3" d="M598.797 108.107C599.441 108.186 600.027 107.728 600.107 107.084C600.186 106.44 599.728 105.854 599.084 105.774C598.44 105.695 597.854 106.153 597.774 106.797C597.695 107.441 598.153 108.028 598.797 108.107Z" fill="white"/>
<path opacity="0.3" d="M530.457 100.875C531.101 100.955 531.688 100.497 531.767 99.8527C531.846 99.2087 531.388 98.6223 530.744 98.543C530.1 98.4637 529.514 98.9215 529.435 99.5656C529.355 100.21 529.813 100.796 530.457 100.875Z" fill="white"/>
<path opacity="0.3" d="M194.667 69.5951C195.311 69.6744 195.898 69.2165 195.977 68.5725C196.056 67.9284 195.598 67.342 194.954 67.2627C194.31 67.1834 193.724 67.6413 193.645 68.2853C193.565 68.9294 194.023 69.5158 194.667 69.5951Z" fill="white"/>
<path opacity="0.3" d="M151.395 31.723C152.039 31.8023 152.625 31.3445 152.704 30.7004C152.784 30.0563 152.326 29.4699 151.682 29.3906C151.038 29.3113 150.451 29.7692 150.372 30.4133C150.293 31.0573 150.751 31.6437 151.395 31.723Z" fill="white"/>
<path opacity="0.11" d="M577.052 87.6781C577.696 87.7574 578.282 87.2995 578.362 86.6555C578.441 86.0114 577.983 85.425 577.339 85.3457C576.695 85.2664 576.109 85.7243 576.029 86.3683C575.95 87.0124 576.408 87.5988 577.052 87.6781Z" fill="white"/>
<path opacity="0.3" d="M237.187 22.1683C237.831 22.2476 238.417 21.7898 238.496 21.1457C238.576 20.5016 238.118 19.9152 237.474 19.8359C236.83 19.7567 236.243 20.2145 236.164 20.8586C236.085 21.5026 236.543 22.089 237.187 22.1683Z" fill="white"/>
<path opacity="0.11" d="M222.885 8.57167C223.529 8.65095 224.115 8.19312 224.195 7.54904C224.274 6.90497 223.816 6.31855 223.172 6.23926C222.528 6.15998 221.942 6.61785 221.862 7.26192C221.783 7.90599 222.241 8.49238 222.885 8.57167Z" fill="white"/>
<path opacity="0.3" d="M213.633 45.3041C214.277 45.3834 214.863 44.9255 214.943 44.2815C215.022 43.6374 214.564 43.051 213.92 42.9717C213.276 42.8924 212.69 43.3503 212.61 43.9943C212.531 44.6384 212.989 45.2248 213.633 45.3041Z" fill="white"/>
<path d="M250.13 49.2041C250.613 49.2635 251.052 48.9202 251.112 48.4373C251.171 47.9544 250.828 47.5147 250.345 47.4553C249.862 47.3958 249.423 47.7391 249.363 48.222C249.304 48.705 249.647 49.1446 250.13 49.2041Z" fill="white"/>
<path opacity="0.11" d="M650.667 190.633C651.311 190.712 651.898 190.255 651.977 189.611C652.056 188.966 651.598 188.38 650.954 188.301C650.31 188.222 649.724 188.679 649.645 189.323C649.565 189.968 650.023 190.554 650.667 190.633Z" fill="white"/>
<path d="M653.663 197.51C654.146 197.569 654.586 197.226 654.645 196.743C654.704 196.26 654.361 195.82 653.878 195.761C653.395 195.702 652.956 196.045 652.896 196.528C652.837 197.011 653.18 197.45 653.663 197.51Z" fill="white"/>
<path d="M674.407 187.641C674.89 187.7 675.33 187.357 675.389 186.874C675.449 186.391 675.105 185.951 674.622 185.892C674.14 185.832 673.7 186.176 673.64 186.659C673.581 187.141 673.924 187.581 674.407 187.641Z" fill="white"/>
<path d="M625.005 180.372C625.488 180.432 625.927 180.088 625.987 179.605C626.046 179.122 625.703 178.683 625.22 178.623C624.737 178.564 624.298 178.907 624.238 179.39C624.179 179.873 624.522 180.313 625.005 180.372Z" fill="white"/>
<path opacity="0.11" d="M594.429 190.808C595.073 190.887 595.659 190.429 595.739 189.785C595.818 189.141 595.36 188.555 594.716 188.476C594.072 188.396 593.486 188.854 593.406 189.498C593.327 190.142 593.785 190.729 594.429 190.808Z" fill="white"/>
<path d="M584.935 176.624C585.257 176.663 585.55 176.435 585.59 176.113C585.629 175.791 585.4 175.498 585.079 175.458C584.757 175.419 584.464 175.648 584.424 175.969C584.385 176.291 584.613 176.584 584.935 176.624Z" fill="white"/>
<path d="M646.115 213.147C646.437 213.187 646.73 212.958 646.769 212.636C646.809 212.314 646.58 212.021 646.258 211.982C645.937 211.942 645.644 212.171 645.604 212.493C645.564 212.815 645.793 213.107 646.115 213.147Z" fill="white"/>
<path d="M773.184 228.795C773.506 228.834 773.799 228.605 773.839 228.284C773.878 227.962 773.649 227.669 773.328 227.629C773.006 227.59 772.713 227.818 772.673 228.14C772.634 228.462 772.862 228.755 773.184 228.795Z" fill="white"/>
<path d="M840.591 205.136C840.913 205.176 841.206 204.947 841.246 204.625C841.285 204.304 841.057 204.011 840.735 203.971C840.413 203.932 840.12 204.16 840.081 204.482C840.041 204.804 840.27 205.097 840.591 205.136Z" fill="white"/>
<path d="M858.089 250.487C858.41 250.527 858.703 250.298 858.743 249.976C858.783 249.654 858.554 249.361 858.232 249.322C857.91 249.282 857.617 249.511 857.578 249.833C857.538 250.154 857.767 250.447 858.089 250.487Z" fill="white"/>
<path d="M453.811 174.68C454.133 174.72 454.426 174.491 454.466 174.169C454.505 173.848 454.276 173.555 453.955 173.515C453.633 173.475 453.34 173.704 453.3 174.026C453.261 174.348 453.489 174.641 453.811 174.68Z" fill="white"/>
<path opacity="0.11" d="M448.947 142.131C449.269 142.171 449.562 141.942 449.601 141.621C449.641 141.299 449.412 141.006 449.09 140.966C448.769 140.927 448.476 141.155 448.436 141.477C448.396 141.799 448.625 142.092 448.947 142.131Z" fill="white"/>
<path opacity="0.11" d="M422.235 152.454C422.557 152.493 422.85 152.265 422.889 151.943C422.929 151.621 422.7 151.328 422.379 151.289C422.057 151.249 421.764 151.478 421.724 151.799C421.685 152.121 421.913 152.414 422.235 152.454Z" fill="white"/>
<path opacity="0.11" d="M437.164 189.793C437.486 189.832 437.778 189.603 437.818 189.282C437.858 188.96 437.629 188.667 437.307 188.627C436.985 188.588 436.692 188.817 436.653 189.138C436.613 189.46 436.842 189.753 437.164 189.793Z" fill="white"/>
<path opacity="0.11" d="M578.754 183.551C579.075 183.591 579.368 183.362 579.408 183.041C579.448 182.719 579.219 182.426 578.897 182.386C578.575 182.347 578.282 182.575 578.243 182.897C578.203 183.219 578.432 183.512 578.754 183.551Z" fill="white"/>
<path opacity="0.11" d="M642.366 233.987C642.688 234.027 642.981 233.798 643.02 233.476C643.06 233.154 642.831 232.861 642.509 232.822C642.188 232.782 641.895 233.011 641.855 233.333C641.815 233.654 642.044 233.947 642.366 233.987Z" fill="white"/>
<path opacity="0.11" d="M754.997 241.937C755.319 241.977 755.612 241.748 755.651 241.426C755.691 241.104 755.462 240.812 755.14 240.772C754.818 240.732 754.526 240.961 754.486 241.283C754.446 241.605 754.675 241.898 754.997 241.937Z" fill="white"/>
<path opacity="0.3" d="M482.421 163.41C482.742 163.449 483.035 163.221 483.075 162.899C483.115 162.577 482.886 162.284 482.564 162.245C482.242 162.205 481.949 162.434 481.91 162.755C481.87 163.077 482.099 163.37 482.421 163.41Z" fill="white"/>
<path d="M620.353 148.438C620.675 148.478 620.968 148.249 621.008 147.927C621.047 147.605 620.818 147.313 620.497 147.273C620.175 147.233 619.882 147.462 619.842 147.784C619.803 148.106 620.031 148.398 620.353 148.438Z" fill="white"/>
<path d="M710.26 158.324C710.582 158.363 710.875 158.135 710.915 157.813C710.954 157.491 710.726 157.198 710.404 157.159C710.082 157.119 709.789 157.348 709.75 157.67C709.71 157.991 709.939 158.284 710.26 158.324Z" fill="white"/>
<path d="M574.117 197.184C574.439 197.224 574.732 196.995 574.771 196.673C574.811 196.352 574.582 196.059 574.26 196.019C573.939 195.979 573.646 196.208 573.606 196.53C573.566 196.852 573.795 197.145 574.117 197.184Z" fill="white"/>
<path opacity="0.3" d="M533.316 192.162C533.638 192.201 533.931 191.973 533.97 191.651C534.01 191.329 533.781 191.036 533.46 190.997C533.138 190.957 532.845 191.186 532.805 191.507C532.766 191.829 532.994 192.122 533.316 192.162Z" fill="white"/>
<path opacity="0.11" d="M489.975 150.141C490.297 150.181 490.59 149.952 490.63 149.63C490.669 149.309 490.441 149.016 490.119 148.976C489.797 148.936 489.504 149.165 489.464 149.487C489.425 149.809 489.654 150.102 489.975 150.141Z" fill="white"/>
<path opacity="0.3" d="M629.13 163.722C629.451 163.762 629.744 163.533 629.784 163.211C629.824 162.89 629.595 162.597 629.273 162.557C628.951 162.517 628.658 162.746 628.619 163.068C628.579 163.39 628.808 163.683 629.13 163.722Z" fill="white"/>
<path opacity="0.3" d="M582.667 209.481C582.988 209.521 583.281 209.292 583.321 208.97C583.361 208.648 583.132 208.355 582.81 208.316C582.488 208.276 582.195 208.505 582.156 208.827C582.116 209.148 582.345 209.441 582.667 209.481Z" fill="white"/>
<path opacity="0.3" d="M511.419 206.626C511.74 206.665 512.033 206.436 512.073 206.115C512.113 205.793 511.884 205.5 511.562 205.46C511.24 205.421 510.947 205.65 510.908 205.971C510.868 206.293 511.097 206.586 511.419 206.626Z" fill="white"/>
<path opacity="0.3" d="M499.324 165.495C499.646 165.534 499.939 165.306 499.978 164.984C500.018 164.662 499.789 164.369 499.467 164.33C499.146 164.29 498.853 164.519 498.813 164.84C498.773 165.162 499.002 165.455 499.324 165.495Z" fill="white"/>
<path opacity="0.3" d="M862.084 208.377C862.405 208.416 862.698 208.187 862.738 207.866C862.778 207.544 862.549 207.251 862.227 207.211C861.905 207.172 861.612 207.4 861.573 207.722C861.533 208.044 861.762 208.337 862.084 208.377Z" fill="white"/>
<path opacity="0.11" d="M771.184 172.924C771.506 172.964 771.799 172.735 771.839 172.414C771.878 172.092 771.649 171.799 771.328 171.759C771.006 171.72 770.713 171.948 770.673 172.27C770.634 172.592 770.862 172.885 771.184 172.924Z" fill="white"/>
<path opacity="0.11" d="M843.262 231.5C843.584 231.539 843.877 231.311 843.917 230.989C843.956 230.667 843.728 230.374 843.406 230.334C843.084 230.295 842.791 230.524 842.752 230.845C842.712 231.167 842.941 231.46 843.262 231.5Z" fill="white"/>
<path opacity="0.3" d="M695.148 218.593C695.792 218.672 696.378 218.215 696.457 217.571C696.537 216.926 696.079 216.34 695.435 216.261C694.791 216.181 694.204 216.639 694.125 217.283C694.046 217.927 694.504 218.514 695.148 218.593Z" fill="white"/>
<path opacity="0.11" d="M731.692 205.342C732.336 205.421 732.922 204.964 733.001 204.32C733.081 203.675 732.623 203.089 731.979 203.01C731.335 202.93 730.748 203.388 730.669 204.032C730.59 204.676 731.047 205.263 731.692 205.342Z" fill="white"/>
<path d="M733.914 184.907C734.397 184.967 734.837 184.623 734.896 184.14C734.955 183.658 734.612 183.218 734.129 183.158C733.646 183.099 733.207 183.442 733.147 183.925C733.088 184.408 733.431 184.848 733.914 184.907Z" fill="white"/>
<path d="M686.162 241.158C686.645 241.218 687.085 240.874 687.144 240.391C687.204 239.909 686.86 239.469 686.377 239.409C685.894 239.35 685.455 239.693 685.395 240.176C685.336 240.659 685.679 241.099 686.162 241.158Z" fill="white"/>
<path d="M501.172 220.156C501.655 220.216 502.094 219.872 502.154 219.389C502.213 218.907 501.87 218.467 501.387 218.407C500.904 218.348 500.465 218.691 500.405 219.174C500.346 219.657 500.689 220.097 501.172 220.156Z" fill="white"/>
<path d="M425.305 197.21C425.788 197.269 426.227 196.926 426.287 196.443C426.346 195.96 426.003 195.521 425.52 195.461C425.037 195.402 424.597 195.745 424.538 196.228C424.478 196.711 424.822 197.151 425.305 197.21Z" fill="white"/>
<path d="M418.266 172.675C418.748 172.734 419.188 172.391 419.248 171.908C419.307 171.425 418.964 170.985 418.481 170.926C417.998 170.867 417.558 171.21 417.499 171.693C417.439 172.176 417.783 172.615 418.266 172.675Z" fill="white"/>
<path d="M704.503 193.121C704.986 193.181 705.425 192.837 705.485 192.354C705.544 191.871 705.201 191.432 704.718 191.372C704.235 191.313 703.796 191.656 703.736 192.139C703.677 192.622 704.02 193.062 704.503 193.121Z" fill="white"/>
<path d="M597.771 223.767C598.254 223.826 598.694 223.483 598.753 223C598.813 222.517 598.47 222.077 597.987 222.018C597.504 221.958 597.064 222.302 597.005 222.785C596.945 223.267 597.288 223.707 597.771 223.767Z" fill="white"/>
<path d="M741.57 266.914C742.053 266.973 742.493 266.63 742.552 266.147C742.612 265.664 742.268 265.225 741.786 265.165C741.303 265.106 740.863 265.449 740.803 265.932C740.744 266.415 741.087 266.855 741.57 266.914Z" fill="white"/>
<path opacity="0.3" d="M781.926 191.406C782.57 191.485 783.156 191.027 783.236 190.383C783.315 189.739 782.857 189.153 782.213 189.073C781.569 188.994 780.983 189.452 780.903 190.096C780.824 190.74 781.282 191.326 781.926 191.406Z" fill="white"/>
<path d="M787.022 150.025C787.666 150.104 788.252 149.646 788.331 149.002C788.411 148.358 787.953 147.772 787.309 147.692C786.665 147.613 786.078 148.071 785.999 148.715C785.92 149.359 786.378 149.945 787.022 150.025Z" fill="white"/>
<path d="M810.37 207.93C810.853 207.989 811.293 207.646 811.352 207.163C811.412 206.68 811.068 206.24 810.585 206.181C810.102 206.121 809.663 206.465 809.603 206.948C809.544 207.431 809.887 207.87 810.37 207.93Z" fill="white"/>
<path opacity="0.3" d="M841.439 188.677C842.083 188.756 842.669 188.299 842.748 187.654C842.828 187.01 842.37 186.424 841.726 186.345C841.082 186.265 840.495 186.723 840.416 187.367C840.337 188.011 840.795 188.598 841.439 188.677Z" fill="white"/>
<path opacity="0.3" d="M825.708 229.934C826.352 230.013 826.939 229.555 827.018 228.911C827.097 228.267 826.639 227.681 825.995 227.602C825.351 227.522 824.765 227.98 824.686 228.624C824.606 229.268 825.064 229.855 825.708 229.934Z" fill="white"/>
<path opacity="0.3" d="M489.919 198.654C490.563 198.733 491.15 198.275 491.229 197.631C491.308 196.987 490.85 196.401 490.206 196.321C489.562 196.242 488.976 196.7 488.896 197.344C488.817 197.988 489.275 198.574 489.919 198.654Z" fill="white"/>
<path opacity="0.3" d="M446.647 160.782C447.291 160.861 447.877 160.403 447.956 159.759C448.036 159.115 447.578 158.529 446.934 158.449C446.29 158.37 445.703 158.828 445.624 159.472C445.545 160.116 446.003 160.702 446.647 160.782Z" fill="white"/>
<path opacity="0.11" d="M872.303 216.738C872.947 216.817 873.533 216.359 873.613 215.715C873.692 215.071 873.234 214.485 872.59 214.405C871.946 214.326 871.36 214.784 871.28 215.428C871.201 216.072 871.659 216.658 872.303 216.738Z" fill="white"/>
<path opacity="0.3" d="M532.439 151.227C533.083 151.306 533.669 150.848 533.748 150.204C533.828 149.56 533.37 148.974 532.726 148.895C532.082 148.815 531.495 149.273 531.416 149.917C531.337 150.561 531.795 151.148 532.439 151.227Z" fill="white"/>
<path opacity="0.11" d="M518.136 137.631C518.78 137.711 519.366 137.253 519.446 136.609C519.525 135.965 519.067 135.378 518.423 135.299C517.779 135.22 517.193 135.677 517.113 136.321C517.034 136.966 517.492 137.552 518.136 137.631Z" fill="white"/>
<path opacity="0.3" d="M508.884 174.362C509.528 174.441 510.114 173.983 510.194 173.339C510.273 172.695 509.815 172.109 509.171 172.029C508.527 171.95 507.941 172.408 507.861 173.052C507.782 173.696 508.24 174.282 508.884 174.362Z" fill="white"/>
<path d="M545.382 178.262C545.865 178.321 546.304 177.978 546.364 177.495C546.423 177.012 546.08 176.572 545.597 176.513C545.114 176.453 544.674 176.797 544.615 177.28C544.556 177.763 544.899 178.202 545.382 178.262Z" fill="white"/>
</g>
</g>
<defs>
<clipPath id="clip0_39600_43371">
<rect width="872" height="731" fill="white" transform="translate(0 -140)"/>
</clipPath>
</defs>
</svg>
