<svg width="814" height="658" viewBox="0 0 814 658" fill="none" xmlns="http://www.w3.org/2000/svg">
<g opacity="0.7">
<path opacity="0.11" d="M200.956 507.575C201.5 507.222 201.655 506.494 201.302 505.95C200.949 505.405 200.221 505.25 199.677 505.604C199.132 505.957 198.977 506.684 199.331 507.229C199.684 507.773 200.411 507.928 200.956 507.575Z" fill="white"/>
<path d="M207.67 510.916C208.078 510.652 208.194 510.106 207.929 509.698C207.664 509.29 207.119 509.174 206.711 509.438C206.303 509.703 206.186 510.249 206.451 510.657C206.716 511.065 207.262 511.181 207.67 510.916Z" fill="white"/>
<path d="M217.217 490.022C217.625 489.757 217.742 489.211 217.477 488.803C217.212 488.395 216.666 488.279 216.258 488.544C215.85 488.809 215.734 489.354 215.999 489.762C216.264 490.171 216.809 490.287 217.217 490.022Z" fill="white"/>
<path d="M174.703 516.209C175.111 515.945 175.227 515.399 174.962 514.991C174.697 514.583 174.152 514.466 173.743 514.731C173.335 514.996 173.219 515.542 173.484 515.95C173.749 516.358 174.294 516.474 174.703 516.209Z" fill="white"/>
<path opacity="0.11" d="M157.988 543.859C158.532 543.506 158.687 542.778 158.334 542.234C157.98 541.689 157.253 541.534 156.708 541.888C156.164 542.241 156.009 542.969 156.362 543.513C156.716 544.057 157.443 544.212 157.988 543.859Z" fill="white"/>
<path d="M141.598 539.093C141.87 538.917 141.947 538.553 141.771 538.281C141.594 538.009 141.231 537.932 140.959 538.108C140.687 538.285 140.609 538.648 140.786 538.92C140.962 539.192 141.326 539.269 141.598 539.093Z" fill="white"/>
<path d="M211.941 527.746C212.213 527.57 212.29 527.206 212.114 526.934C211.937 526.662 211.574 526.585 211.302 526.762C211.03 526.938 210.953 527.302 211.129 527.573C211.306 527.845 211.669 527.923 211.941 527.746Z" fill="white"/>
<path d="M319.339 458.054C319.611 457.877 319.689 457.514 319.512 457.242C319.336 456.97 318.972 456.893 318.7 457.069C318.428 457.246 318.351 457.609 318.528 457.881C318.704 458.153 319.068 458.23 319.339 458.054Z" fill="white"/>
<path d="M355.769 396.604C356.041 396.427 356.119 396.064 355.942 395.792C355.766 395.52 355.402 395.442 355.13 395.619C354.858 395.795 354.781 396.159 354.957 396.431C355.134 396.703 355.497 396.78 355.769 396.604Z" fill="white"/>
<path d="M398.324 420.097C398.596 419.92 398.673 419.557 398.497 419.285C398.32 419.013 397.957 418.936 397.685 419.112C397.413 419.289 397.335 419.652 397.512 419.924C397.688 420.196 398.052 420.273 398.324 420.097Z" fill="white"/>
<path d="M39.9015 621.891C40.1735 621.714 40.2509 621.351 40.0744 621.079C39.8979 620.807 39.5344 620.73 39.2624 620.906C38.9905 621.083 38.9131 621.446 39.0896 621.718C39.2661 621.99 39.6296 622.067 39.9015 621.891Z" fill="white"/>
<path opacity="0.11" d="M15.2531 600.082C15.525 599.906 15.6024 599.542 15.4259 599.27C15.2494 598.998 14.8859 598.921 14.614 599.097C14.342 599.274 14.2646 599.637 14.4411 599.909C14.6176 600.181 14.9811 600.259 15.2531 600.082Z" fill="white"/>
<path opacity="0.11" d="M1.4259 625.159C1.69785 624.983 1.77525 624.619 1.59877 624.347C1.42229 624.075 1.05878 623.998 0.786834 624.175C0.514889 624.351 0.437487 624.715 0.613969 624.987C0.790451 625.258 1.15396 625.336 1.4259 625.159Z" fill="white"/>
<path opacity="0.11" d="M36.8629 644.167C37.1349 643.991 37.2123 643.627 37.0358 643.355C36.8593 643.083 36.4958 643.006 36.2238 643.182C35.9519 643.359 35.8745 643.722 36.051 643.994C36.2275 644.266 36.591 644.344 36.8629 644.167Z" fill="white"/>
<path opacity="0.11" d="M141.315 548.374C141.587 548.198 141.664 547.834 141.488 547.562C141.311 547.29 140.948 547.213 140.676 547.389C140.404 547.566 140.327 547.929 140.503 548.201C140.68 548.473 141.043 548.551 141.315 548.374Z" fill="white"/>
<path opacity="0.11" d="M222.473 546.121C222.745 545.945 222.822 545.581 222.646 545.309C222.469 545.037 222.106 544.96 221.834 545.137C221.562 545.313 221.484 545.676 221.661 545.948C221.837 546.22 222.201 546.298 222.473 546.121Z" fill="white"/>
<path opacity="0.11" d="M313.854 479.813C314.126 479.636 314.203 479.273 314.027 479.001C313.85 478.729 313.487 478.651 313.215 478.828C312.943 479.004 312.866 479.368 313.042 479.64C313.219 479.912 313.582 479.989 313.854 479.813Z" fill="white"/>
<path opacity="0.3" d="M54.5734 594.867C54.8453 594.691 54.9227 594.327 54.7463 594.055C54.5698 593.784 54.2062 593.706 53.9343 593.883C53.6623 594.059 53.585 594.423 53.7615 594.695C53.9379 594.967 54.3015 595.044 54.5734 594.867Z" fill="white"/>
<path d="M150.612 494.736C150.884 494.559 150.962 494.196 150.785 493.924C150.609 493.652 150.245 493.574 149.973 493.751C149.701 493.927 149.624 494.291 149.8 494.563C149.977 494.835 150.341 494.912 150.612 494.736Z" fill="white"/>
<path d="M225.839 444.518C226.111 444.341 226.188 443.978 226.012 443.706C225.835 443.434 225.472 443.357 225.2 443.533C224.928 443.709 224.851 444.073 225.027 444.345C225.204 444.617 225.567 444.694 225.839 444.518Z" fill="white"/>
<path d="M146.527 561.797C146.799 561.621 146.876 561.257 146.7 560.985C146.523 560.713 146.16 560.636 145.888 560.812C145.616 560.989 145.539 561.352 145.715 561.624C145.892 561.896 146.255 561.974 146.527 561.797Z" fill="white"/>
<path opacity="0.3" d="M112.043 584.177C112.315 584 112.392 583.637 112.215 583.365C112.039 583.093 111.675 583.016 111.404 583.192C111.132 583.369 111.054 583.732 111.231 584.004C111.407 584.276 111.771 584.353 112.043 584.177Z" fill="white"/>
<path opacity="0.11" d="M51.8312 579.846C52.1032 579.669 52.1806 579.306 52.0041 579.034C51.8276 578.762 51.4641 578.685 51.1921 578.861C50.9202 579.038 50.8428 579.401 51.0193 579.673C51.1958 579.945 51.5593 580.022 51.8312 579.846Z" fill="white"/>
<path opacity="0.3" d="M167.159 500.804C167.431 500.627 167.509 500.264 167.332 499.992C167.156 499.72 166.792 499.643 166.52 499.819C166.248 499.996 166.171 500.359 166.347 500.631C166.524 500.903 166.887 500.98 167.159 500.804Z" fill="white"/>
<path opacity="0.3" d="M160.98 565.723C161.252 565.546 161.329 565.183 161.152 564.911C160.976 564.639 160.612 564.562 160.341 564.738C160.069 564.915 159.991 565.278 160.168 565.55C160.344 565.822 160.708 565.899 160.98 565.723Z" fill="white"/>
<path opacity="0.3" d="M104.566 609.331C104.837 609.155 104.915 608.791 104.738 608.519C104.562 608.247 104.198 608.17 103.926 608.346C103.655 608.523 103.577 608.886 103.754 609.158C103.93 609.43 104.294 609.508 104.566 609.331Z" fill="white"/>
<path opacity="0.3" d="M68.8629 585.598C69.1349 585.421 69.2123 585.058 69.0358 584.786C68.8593 584.514 68.4958 584.437 68.2238 584.613C67.9519 584.79 67.8745 585.153 68.051 585.425C68.2275 585.697 68.591 585.774 68.8629 585.598Z" fill="white"/>
<path opacity="0.3" d="M374.316 385.27C374.588 385.093 374.665 384.73 374.489 384.458C374.312 384.186 373.949 384.108 373.677 384.285C373.405 384.461 373.328 384.825 373.504 385.097C373.681 385.369 374.044 385.446 374.316 385.27Z" fill="white"/>
<path opacity="0.11" d="M281.894 416.54C282.166 416.364 282.243 416 282.067 415.728C281.89 415.456 281.527 415.379 281.255 415.555C280.983 415.732 280.905 416.095 281.082 416.367C281.258 416.639 281.622 416.717 281.894 416.54Z" fill="white"/>
<path opacity="0.11" d="M374.762 415.081C375.034 414.905 375.112 414.541 374.935 414.269C374.759 413.997 374.395 413.92 374.123 414.096C373.851 414.273 373.774 414.636 373.95 414.908C374.127 415.18 374.49 415.258 374.762 415.081Z" fill="white"/>
<path opacity="0.3" d="M253.002 500.401C253.547 500.048 253.702 499.32 253.348 498.776C252.995 498.231 252.267 498.076 251.723 498.43C251.179 498.783 251.024 499.511 251.377 500.055C251.73 500.599 252.458 500.754 253.002 500.401Z" fill="white"/>
<path opacity="0.11" d="M272.48 466.76C273.025 466.407 273.18 465.679 272.826 465.135C272.473 464.591 271.745 464.436 271.201 464.789C270.657 465.142 270.502 465.87 270.855 466.414C271.208 466.959 271.936 467.114 272.48 466.76Z" fill="white"/>
<path d="M261.046 449.678C261.454 449.413 261.57 448.868 261.305 448.46C261.04 448.051 260.495 447.935 260.087 448.2C259.679 448.465 259.562 449.011 259.827 449.419C260.092 449.827 260.638 449.943 261.046 449.678Z" fill="white"/>
<path d="M260.624 523.463C261.033 523.198 261.149 522.653 260.884 522.245C260.619 521.836 260.073 521.72 259.665 521.985C259.257 522.25 259.141 522.796 259.406 523.204C259.671 523.612 260.216 523.728 260.624 523.463Z" fill="white"/>
<path d="M430.569 427.176C430.977 426.911 431.094 426.366 430.829 425.958C430.564 425.549 430.018 425.433 429.61 425.698C429.202 425.963 429.086 426.509 429.351 426.917C429.616 427.325 430.161 427.441 430.569 427.176Z" fill="white"/>
<path d="M105.413 626.284C105.821 626.019 105.937 625.473 105.672 625.065C105.408 624.657 104.862 624.541 104.454 624.806C104.046 625.07 103.93 625.616 104.194 626.024C104.459 626.432 105.005 626.548 105.413 626.284Z" fill="white"/>
<path d="M32.5454 657.472C32.9535 657.207 33.0697 656.662 32.8048 656.253C32.5399 655.845 31.9943 655.729 31.5862 655.994C31.178 656.259 31.0619 656.804 31.3268 657.213C31.5916 657.621 32.1372 657.737 32.5454 657.472Z" fill="white"/>
<path d="M11.3818 643.202C11.79 642.937 11.9061 642.391 11.6413 641.983C11.3764 641.575 10.8308 641.459 10.4226 641.724C10.0145 641.988 9.89834 642.534 10.1632 642.942C10.4281 643.35 10.9737 643.466 11.3818 643.202Z" fill="white"/>
<path d="M243.796 474.875C244.204 474.611 244.32 474.065 244.055 473.657C243.79 473.249 243.245 473.132 242.837 473.397C242.429 473.662 242.312 474.208 242.577 474.616C242.842 475.024 243.388 475.14 243.796 474.875Z" fill="white"/>
<path d="M181.733 566.957C182.142 566.693 182.258 566.147 181.993 565.739C181.728 565.331 181.182 565.215 180.774 565.479C180.366 565.744 180.25 566.29 180.515 566.698C180.78 567.106 181.325 567.222 181.733 566.957Z" fill="white"/>
<path d="M319.624 507.578C320.032 507.313 320.148 506.767 319.883 506.359C319.619 505.951 319.073 505.835 318.665 506.099C318.257 506.364 318.14 506.91 318.405 507.318C318.67 507.726 319.216 507.842 319.624 507.578Z" fill="white"/>
<path d="M428.429 389.359C428.837 389.094 428.953 388.548 428.688 388.14C428.423 387.732 427.878 387.616 427.469 387.881C427.061 388.146 426.945 388.691 427.21 389.099C427.475 389.508 428.021 389.624 428.429 389.359Z" fill="white"/>
<path d="M422.67 354.591C423.078 354.326 423.194 353.781 422.929 353.373C422.664 352.964 422.119 352.848 421.711 353.113C421.303 353.378 421.186 353.924 421.451 354.332C421.716 354.74 422.262 354.856 422.67 354.591Z" fill="white"/>
<path opacity="0.3" d="M302.01 423.795C302.554 423.441 302.709 422.714 302.356 422.169C302.003 421.625 301.275 421.47 300.731 421.823C300.186 422.177 300.031 422.904 300.385 423.449C300.738 423.993 301.466 424.148 302.01 423.795Z" fill="white"/>
<path d="M279.307 388.819C279.852 388.466 280.007 387.738 279.653 387.194C279.3 386.649 278.572 386.494 278.028 386.848C277.484 387.201 277.329 387.929 277.682 388.473C278.035 389.017 278.763 389.172 279.307 388.819Z" fill="white"/>
<path d="M334.413 418.168C334.821 417.904 334.937 417.358 334.673 416.95C334.408 416.542 333.862 416.425 333.454 416.69C333.046 416.955 332.93 417.501 333.194 417.909C333.459 418.317 334.005 418.433 334.413 418.168Z" fill="white"/>
<path opacity="0.3" d="M345.839 383.45C346.383 383.097 346.538 382.369 346.185 381.825C345.832 381.28 345.104 381.125 344.56 381.479C344.016 381.832 343.861 382.559 344.214 383.104C344.567 383.648 345.295 383.803 345.839 383.45Z" fill="white"/>
<path opacity="0.3" d="M417.308 386.777C417.852 386.424 418.007 385.696 417.654 385.152C417.301 384.607 416.573 384.452 416.029 384.806C415.484 385.159 415.329 385.887 415.683 386.431C416.036 386.975 416.764 387.13 417.308 386.777Z" fill="white"/>
<path opacity="0.3" d="M360.307 425.166C360.851 424.812 361.006 424.085 360.653 423.54C360.3 422.996 359.572 422.841 359.028 423.194C358.483 423.548 358.328 424.275 358.682 424.82C359.035 425.364 359.763 425.519 360.307 425.166Z" fill="white"/>
<path opacity="0.3" d="M82.9715 617.045C83.5158 616.691 83.6707 615.964 83.3175 615.419C82.9642 614.875 82.2365 614.72 81.6922 615.073C81.1478 615.427 80.9929 616.154 81.3462 616.699C81.6994 617.243 82.4271 617.398 82.9715 617.045Z" fill="white"/>
<path opacity="0.3" d="M25.4793 615.847C26.0236 615.494 26.1785 614.766 25.8253 614.222C25.472 613.678 24.7443 613.523 24.2 613.876C23.6556 614.229 23.5007 614.957 23.854 615.501C24.2073 616.046 24.9349 616.201 25.4793 615.847Z" fill="white"/>
<path opacity="0.11" d="M387.519 385.106C388.063 384.753 388.218 384.025 387.865 383.481C387.512 382.936 386.784 382.781 386.24 383.135C385.695 383.488 385.54 384.216 385.894 384.76C386.247 385.304 386.974 385.459 387.519 385.106Z" fill="white"/>
<path opacity="0.3" d="M85.0574 553.382C85.6018 553.029 85.7567 552.301 85.4034 551.757C85.0501 551.213 84.3225 551.058 83.7781 551.411C83.2338 551.764 83.0789 552.492 83.4321 553.036C83.7854 553.581 84.5131 553.736 85.0574 553.382Z" fill="white"/>
<path opacity="0.11" d="M65.3631 552.162C65.9074 551.808 66.0623 551.081 65.7091 550.536C65.3558 549.992 64.6281 549.837 64.0838 550.19C63.5394 550.544 63.3845 551.271 63.7378 551.816C64.091 552.36 64.8187 552.515 65.3631 552.162Z" fill="white"/>
<path opacity="0.3" d="M81.885 586.247C82.4294 585.893 82.5843 585.166 82.231 584.621C81.8778 584.077 81.1501 583.922 80.6058 584.275C80.0614 584.629 79.9065 585.356 80.2598 585.901C80.613 586.445 81.3407 586.6 81.885 586.247Z" fill="white"/>
<path d="M112.35 565.774C112.758 565.509 112.874 564.963 112.609 564.555C112.345 564.147 111.799 564.031 111.391 564.296C110.983 564.561 110.867 565.106 111.131 565.514C111.396 565.923 111.942 566.039 112.35 565.774Z" fill="white"/>
<path opacity="0.11" d="M273.69 246.576C274.235 246.223 274.389 245.495 274.036 244.951C273.683 244.406 272.955 244.251 272.411 244.605C271.867 244.958 271.712 245.685 272.065 246.23C272.418 246.774 273.146 246.929 273.69 246.576Z" fill="white"/>
<path d="M280.406 249.918C280.814 249.654 280.93 249.108 280.665 248.7C280.4 248.292 279.855 248.175 279.447 248.44C279.038 248.705 278.922 249.251 279.187 249.659C279.452 250.067 279.998 250.183 280.406 249.918Z" fill="white"/>
<path d="M289.952 229.024C290.36 228.759 290.476 228.213 290.212 227.805C289.947 227.397 289.401 227.281 288.993 227.546C288.585 227.811 288.469 228.356 288.734 228.764C288.998 229.173 289.544 229.289 289.952 229.024Z" fill="white"/>
<path d="M247.437 255.211C247.845 254.946 247.961 254.401 247.696 253.993C247.431 253.585 246.885 253.468 246.477 253.733C246.069 253.998 245.953 254.544 246.218 254.952C246.483 255.36 247.028 255.476 247.437 255.211Z" fill="white"/>
<path opacity="0.11" d="M230.722 282.86C231.266 282.507 231.421 281.779 231.068 281.235C230.715 280.69 229.987 280.535 229.443 280.889C228.898 281.242 228.743 281.97 229.097 282.514C229.45 283.058 230.178 283.213 230.722 282.86Z" fill="white"/>
<path d="M214.332 278.096C214.604 277.919 214.681 277.556 214.505 277.284C214.328 277.012 213.965 276.935 213.693 277.111C213.421 277.288 213.343 277.651 213.52 277.923C213.696 278.195 214.06 278.272 214.332 278.096Z" fill="white"/>
<path d="M284.675 266.749C284.947 266.573 285.024 266.209 284.848 265.937C284.671 265.665 284.308 265.588 284.036 265.764C283.764 265.941 283.687 266.304 283.863 266.576C284.039 266.848 284.403 266.926 284.675 266.749Z" fill="white"/>
<path d="M392.074 197.057C392.346 196.88 392.423 196.517 392.247 196.245C392.07 195.973 391.707 195.896 391.435 196.072C391.163 196.249 391.085 196.612 391.262 196.884C391.438 197.156 391.802 197.233 392.074 197.057Z" fill="white"/>
<path d="M428.504 135.607C428.776 135.43 428.853 135.067 428.676 134.795C428.5 134.523 428.136 134.445 427.864 134.622C427.593 134.798 427.515 135.162 427.692 135.434C427.868 135.706 428.232 135.783 428.504 135.607Z" fill="white"/>
<path d="M471.057 159.102C471.329 158.925 471.407 158.562 471.23 158.29C471.054 158.018 470.69 157.94 470.418 158.117C470.146 158.293 470.069 158.657 470.245 158.929C470.422 159.201 470.785 159.278 471.057 159.102Z" fill="white"/>
<path d="M112.637 360.892C112.909 360.715 112.986 360.352 112.81 360.08C112.633 359.808 112.27 359.731 111.998 359.907C111.726 360.084 111.648 360.447 111.825 360.719C112.001 360.991 112.365 361.068 112.637 360.892Z" fill="white"/>
<path opacity="0.11" d="M87.9874 339.084C88.2594 338.908 88.3368 338.544 88.1603 338.272C87.9838 338 87.6203 337.923 87.3484 338.099C87.0764 338.276 86.999 338.639 87.1755 338.911C87.352 339.183 87.7155 339.261 87.9874 339.084Z" fill="white"/>
<path opacity="0.11" d="M74.1593 364.161C74.4313 363.985 74.5087 363.621 74.3322 363.349C74.1557 363.077 73.7922 363 73.5202 363.177C73.2483 363.353 73.1709 363.717 73.3474 363.988C73.5239 364.26 73.8874 364.338 74.1593 364.161Z" fill="white"/>
<path opacity="0.11" d="M109.597 383.17C109.869 382.994 109.947 382.63 109.77 382.358C109.594 382.086 109.23 382.009 108.958 382.185C108.686 382.362 108.609 382.725 108.785 382.997C108.962 383.269 109.325 383.347 109.597 383.17Z" fill="white"/>
<path opacity="0.11" d="M214.05 287.376C214.322 287.2 214.4 286.836 214.223 286.564C214.047 286.292 213.683 286.215 213.411 286.391C213.139 286.568 213.062 286.931 213.238 287.203C213.415 287.475 213.778 287.553 214.05 287.376Z" fill="white"/>
<path opacity="0.11" d="M295.207 285.123C295.479 284.947 295.556 284.583 295.38 284.311C295.203 284.039 294.84 283.962 294.568 284.138C294.296 284.315 294.218 284.678 294.395 284.95C294.571 285.222 294.935 285.3 295.207 285.123Z" fill="white"/>
<path opacity="0.11" d="M386.59 218.815C386.861 218.638 386.939 218.275 386.762 218.003C386.586 217.731 386.222 217.653 385.95 217.83C385.678 218.006 385.601 218.37 385.778 218.642C385.954 218.914 386.318 218.991 386.59 218.815Z" fill="white"/>
<path opacity="0.3" d="M127.307 333.869C127.579 333.693 127.657 333.329 127.48 333.057C127.304 332.785 126.94 332.708 126.668 332.885C126.396 333.061 126.319 333.425 126.495 333.697C126.672 333.968 127.035 334.046 127.307 333.869Z" fill="white"/>
<path d="M223.348 233.737C223.62 233.56 223.697 233.197 223.521 232.925C223.344 232.653 222.981 232.575 222.709 232.752C222.437 232.928 222.359 233.292 222.536 233.564C222.712 233.836 223.076 233.913 223.348 233.737Z" fill="white"/>
<path d="M298.573 183.52C298.845 183.343 298.922 182.98 298.746 182.708C298.569 182.436 298.206 182.358 297.934 182.535C297.662 182.711 297.584 183.075 297.761 183.347C297.937 183.619 298.301 183.696 298.573 183.52Z" fill="white"/>
<path d="M219.262 300.799C219.534 300.623 219.611 300.259 219.435 299.987C219.258 299.715 218.895 299.638 218.623 299.814C218.351 299.991 218.273 300.354 218.45 300.626C218.626 300.898 218.99 300.976 219.262 300.799Z" fill="white"/>
<path opacity="0.3" d="M184.777 323.179C185.049 323.002 185.126 322.639 184.95 322.367C184.773 322.095 184.41 322.018 184.138 322.194C183.866 322.371 183.789 322.734 183.965 323.006C184.142 323.278 184.505 323.355 184.777 323.179Z" fill="white"/>
<path opacity="0.11" d="M124.565 318.849C124.837 318.672 124.914 318.309 124.738 318.037C124.561 317.765 124.198 317.688 123.926 317.864C123.654 318.041 123.577 318.404 123.753 318.676C123.93 318.948 124.293 319.025 124.565 318.849Z" fill="white"/>
<path opacity="0.3" d="M239.893 239.805C240.165 239.628 240.243 239.265 240.066 238.993C239.89 238.721 239.526 238.644 239.254 238.82C238.982 238.997 238.905 239.36 239.081 239.632C239.258 239.904 239.621 239.981 239.893 239.805Z" fill="white"/>
<path opacity="0.3" d="M233.715 304.724C233.986 304.547 234.064 304.184 233.887 303.912C233.711 303.64 233.347 303.563 233.075 303.739C232.803 303.916 232.726 304.279 232.903 304.551C233.079 304.823 233.443 304.9 233.715 304.724Z" fill="white"/>
<path opacity="0.3" d="M177.3 348.333C177.572 348.157 177.65 347.793 177.473 347.521C177.297 347.249 176.933 347.172 176.661 347.348C176.389 347.525 176.312 347.888 176.488 348.16C176.665 348.432 177.028 348.51 177.3 348.333Z" fill="white"/>
<path opacity="0.3" d="M141.597 324.6C141.869 324.423 141.946 324.06 141.77 323.788C141.593 323.516 141.23 323.439 140.958 323.615C140.686 323.792 140.608 324.155 140.785 324.427C140.961 324.699 141.325 324.776 141.597 324.6Z" fill="white"/>
<path opacity="0.3" d="M447.05 124.272C447.322 124.095 447.4 123.732 447.223 123.46C447.047 123.188 446.683 123.11 446.411 123.287C446.139 123.463 446.062 123.827 446.238 124.099C446.415 124.371 446.779 124.448 447.05 124.272Z" fill="white"/>
<path opacity="0.11" d="M354.629 155.544C354.901 155.368 354.978 155.004 354.801 154.732C354.625 154.46 354.261 154.383 353.989 154.559C353.718 154.736 353.64 155.099 353.817 155.371C353.993 155.643 354.357 155.721 354.629 155.544Z" fill="white"/>
<path opacity="0.11" d="M447.495 154.084C447.767 153.908 447.844 153.544 447.668 153.272C447.491 153 447.128 152.923 446.856 153.099C446.584 153.276 446.506 153.639 446.683 153.911C446.859 154.183 447.223 154.261 447.495 154.084Z" fill="white"/>
<path opacity="0.3" d="M325.738 239.404C326.282 239.051 326.437 238.323 326.084 237.779C325.73 237.234 325.003 237.079 324.458 237.433C323.914 237.786 323.759 238.514 324.112 239.058C324.466 239.602 325.193 239.757 325.738 239.404Z" fill="white"/>
<path opacity="0.11" d="M345.213 205.762C345.758 205.409 345.912 204.681 345.559 204.137C345.206 203.593 344.478 203.438 343.934 203.791C343.39 204.144 343.235 204.872 343.588 205.416C343.941 205.961 344.669 206.116 345.213 205.762Z" fill="white"/>
<path d="M333.78 188.679C334.188 188.414 334.305 187.869 334.04 187.46C333.775 187.052 333.229 186.936 332.821 187.201C332.413 187.466 332.297 188.012 332.562 188.42C332.826 188.828 333.372 188.944 333.78 188.679Z" fill="white"/>
<path d="M333.358 262.464C333.767 262.199 333.883 261.654 333.618 261.246C333.353 260.837 332.807 260.721 332.399 260.986C331.991 261.251 331.875 261.797 332.14 262.205C332.405 262.613 332.95 262.729 333.358 262.464Z" fill="white"/>
<path d="M503.304 166.178C503.712 165.913 503.828 165.368 503.563 164.96C503.298 164.551 502.753 164.435 502.345 164.7C501.936 164.965 501.82 165.511 502.085 165.919C502.35 166.327 502.896 166.443 503.304 166.178Z" fill="white"/>
<path d="M178.147 365.286C178.556 365.021 178.672 364.475 178.407 364.067C178.142 363.659 177.596 363.543 177.188 363.808C176.78 364.072 176.664 364.618 176.929 365.026C177.194 365.434 177.739 365.55 178.147 365.286Z" fill="white"/>
<path d="M105.281 396.474C105.689 396.209 105.805 395.664 105.54 395.255C105.275 394.847 104.73 394.731 104.322 394.996C103.913 395.261 103.797 395.806 104.062 396.215C104.327 396.623 104.873 396.739 105.281 396.474Z" fill="white"/>
<path d="M84.1162 382.204C84.5243 381.939 84.6405 381.393 84.3756 380.985C84.1107 380.577 83.5651 380.461 83.157 380.725C82.7488 380.99 82.6327 381.536 82.8976 381.944C83.1624 382.352 83.708 382.468 84.1162 382.204Z" fill="white"/>
<path d="M316.53 213.878C316.938 213.613 317.055 213.068 316.79 212.66C316.525 212.252 315.979 212.135 315.571 212.4C315.163 212.665 315.047 213.211 315.312 213.619C315.577 214.027 316.122 214.143 316.53 213.878Z" fill="white"/>
<path d="M254.468 305.958C254.876 305.694 254.992 305.148 254.727 304.74C254.462 304.332 253.917 304.215 253.509 304.48C253.1 304.745 252.984 305.291 253.249 305.699C253.514 306.107 254.06 306.223 254.468 305.958Z" fill="white"/>
<path d="M392.358 246.579C392.767 246.315 392.883 245.769 392.618 245.361C392.353 244.953 391.807 244.837 391.399 245.101C390.991 245.366 390.875 245.912 391.14 246.32C391.405 246.728 391.95 246.844 392.358 246.579Z" fill="white"/>
<path d="M501.163 128.36C501.571 128.095 501.687 127.549 501.422 127.141C501.158 126.733 500.612 126.617 500.204 126.882C499.796 127.147 499.68 127.692 499.944 128.1C500.209 128.508 500.755 128.625 501.163 128.36Z" fill="white"/>
<path d="M495.405 93.5942C495.813 93.3293 495.93 92.7837 495.665 92.3755C495.4 91.9674 494.854 91.8512 494.446 92.1161C494.038 92.381 493.922 92.9266 494.187 93.3347C494.451 93.7429 494.997 93.859 495.405 93.5942Z" fill="white"/>
<path opacity="0.3" d="M374.744 162.796C375.289 162.442 375.444 161.715 375.09 161.17C374.737 160.626 374.009 160.471 373.465 160.824C372.921 161.177 372.766 161.905 373.119 162.449C373.472 162.994 374.2 163.149 374.744 162.796Z" fill="white"/>
<path d="M352.041 127.821C352.586 127.468 352.741 126.74 352.387 126.196C352.034 125.651 351.306 125.496 350.762 125.85C350.218 126.203 350.063 126.931 350.416 127.475C350.769 128.019 351.497 128.174 352.041 127.821Z" fill="white"/>
<path d="M407.147 157.17C407.556 156.905 407.672 156.36 407.407 155.952C407.142 155.544 406.596 155.427 406.188 155.692C405.78 155.957 405.664 156.503 405.929 156.911C406.194 157.319 406.739 157.435 407.147 157.17Z" fill="white"/>
<path opacity="0.3" d="M418.574 122.452C419.118 122.099 419.273 121.371 418.919 120.826C418.566 120.282 417.839 120.127 417.294 120.48C416.75 120.834 416.595 121.561 416.948 122.106C417.302 122.65 418.029 122.805 418.574 122.452Z" fill="white"/>
<path opacity="0.3" d="M490.041 125.779C490.586 125.426 490.741 124.698 490.387 124.154C490.034 123.609 489.306 123.454 488.762 123.808C488.218 124.161 488.063 124.889 488.416 125.433C488.769 125.977 489.497 126.132 490.041 125.779Z" fill="white"/>
<path opacity="0.3" d="M433.041 164.168C433.586 163.814 433.741 163.087 433.387 162.542C433.034 161.998 432.306 161.843 431.762 162.196C431.218 162.55 431.063 163.277 431.416 163.822C431.769 164.366 432.497 164.521 433.041 164.168Z" fill="white"/>
<path opacity="0.3" d="M155.706 356.047C156.25 355.694 156.405 354.967 156.052 354.422C155.699 353.878 154.971 353.723 154.427 354.076C153.882 354.429 153.727 355.157 154.081 355.701C154.434 356.246 155.161 356.401 155.706 356.047Z" fill="white"/>
<path opacity="0.3" d="M98.2132 354.85C98.7575 354.497 98.9124 353.769 98.5592 353.225C98.2059 352.681 97.4782 352.526 96.9339 352.879C96.3895 353.232 96.2346 353.96 96.5879 354.504C96.9411 355.049 97.6688 355.203 98.2132 354.85Z" fill="white"/>
<path opacity="0.11" d="M460.252 124.108C460.797 123.755 460.951 123.027 460.598 122.483C460.245 121.938 459.517 121.783 458.973 122.137C458.429 122.49 458.274 123.218 458.627 123.762C458.98 124.306 459.708 124.461 460.252 124.108Z" fill="white"/>
<path opacity="0.3" d="M157.791 292.385C158.336 292.032 158.491 291.304 158.137 290.76C157.784 290.216 157.056 290.061 156.512 290.414C155.968 290.767 155.813 291.495 156.166 292.039C156.519 292.584 157.247 292.739 157.791 292.385Z" fill="white"/>
<path opacity="0.11" d="M138.096 291.163C138.64 290.809 138.795 290.082 138.442 289.537C138.089 288.993 137.361 288.838 136.817 289.191C136.272 289.545 136.117 290.272 136.471 290.817C136.824 291.361 137.552 291.516 138.096 291.163Z" fill="white"/>
<path opacity="0.3" d="M154.62 325.249C155.164 324.895 155.319 324.168 154.966 323.623C154.613 323.079 153.885 322.924 153.341 323.277C152.796 323.631 152.641 324.358 152.995 324.903C153.348 325.447 154.076 325.602 154.62 325.249Z" fill="white"/>
<path d="M185.085 304.776C185.494 304.511 185.61 303.965 185.345 303.557C185.08 303.149 184.534 303.033 184.126 303.298C183.718 303.563 183.602 304.108 183.867 304.516C184.132 304.924 184.677 305.041 185.085 304.776Z" fill="white"/>
<path opacity="0.11" d="M582.824 155.657C583.368 155.304 583.523 154.576 583.169 154.032C582.816 153.487 582.089 153.332 581.544 153.686C581 154.039 580.845 154.766 581.198 155.311C581.552 155.855 582.279 156.01 582.824 155.657Z" fill="white"/>
<path d="M589.538 158.998C589.946 158.734 590.062 158.188 589.797 157.78C589.533 157.372 588.987 157.256 588.579 157.52C588.171 157.785 588.055 158.331 588.319 158.739C588.584 159.147 589.13 159.263 589.538 158.998Z" fill="white"/>
<path d="M599.085 138.105C599.493 137.84 599.609 137.294 599.344 136.886C599.079 136.478 598.534 136.362 598.126 136.627C597.718 136.892 597.601 137.437 597.866 137.845C598.131 138.254 598.677 138.37 599.085 138.105Z" fill="white"/>
<path d="M556.569 164.29C556.977 164.026 557.094 163.48 556.829 163.072C556.564 162.664 556.018 162.548 555.61 162.812C555.202 163.077 555.086 163.623 555.351 164.031C555.616 164.439 556.161 164.555 556.569 164.29Z" fill="white"/>
<path opacity="0.11" d="M539.855 191.94C540.399 191.587 540.554 190.859 540.201 190.315C539.847 189.77 539.12 189.615 538.575 189.969C538.031 190.322 537.876 191.05 538.229 191.594C538.583 192.138 539.31 192.293 539.855 191.94Z" fill="white"/>
<path d="M523.464 187.176C523.736 187 523.814 186.636 523.637 186.364C523.461 186.092 523.097 186.015 522.825 186.191C522.553 186.368 522.476 186.731 522.653 187.003C522.829 187.275 523.193 187.352 523.464 187.176Z" fill="white"/>
<path d="M593.807 175.829C594.079 175.653 594.157 175.289 593.98 175.017C593.804 174.745 593.44 174.668 593.168 174.844C592.896 175.021 592.819 175.385 592.995 175.656C593.172 175.928 593.535 176.006 593.807 175.829Z" fill="white"/>
<path d="M701.207 106.137C701.479 105.96 701.556 105.597 701.379 105.325C701.203 105.053 700.84 104.976 700.568 105.152C700.296 105.329 700.218 105.692 700.395 105.964C700.571 106.236 700.935 106.313 701.207 106.137Z" fill="white"/>
<path d="M737.636 44.6858C737.908 44.5093 737.986 44.1457 737.809 43.8738C737.633 43.6019 737.269 43.5245 736.997 43.701C736.725 43.8775 736.648 44.241 736.824 44.5129C737.001 44.7849 737.364 44.8623 737.636 44.6858Z" fill="white"/>
<path d="M780.19 68.1799C780.462 68.0034 780.539 67.6399 780.363 67.3679C780.186 67.096 779.823 67.0186 779.551 67.1951C779.279 67.3716 779.202 67.7351 779.378 68.007C779.555 68.279 779.918 68.3564 780.19 68.1799Z" fill="white"/>
<path d="M421.768 269.973C422.04 269.796 422.118 269.433 421.941 269.161C421.765 268.889 421.401 268.812 421.129 268.988C420.857 269.165 420.78 269.528 420.956 269.8C421.133 270.072 421.496 270.149 421.768 269.973Z" fill="white"/>
<path opacity="0.11" d="M397.12 248.165C397.392 247.989 397.469 247.625 397.293 247.353C397.116 247.081 396.753 247.004 396.481 247.18C396.209 247.357 396.131 247.72 396.308 247.992C396.484 248.264 396.848 248.342 397.12 248.165Z" fill="white"/>
<path opacity="0.11" d="M383.293 273.242C383.565 273.066 383.642 272.702 383.465 272.43C383.289 272.159 382.925 272.081 382.654 272.258C382.382 272.434 382.304 272.798 382.481 273.07C382.657 273.341 383.021 273.419 383.293 273.242Z" fill="white"/>
<path opacity="0.11" d="M418.73 292.25C419.002 292.074 419.079 291.71 418.903 291.438C418.726 291.166 418.363 291.089 418.091 291.265C417.819 291.442 417.742 291.805 417.918 292.077C418.095 292.349 418.458 292.427 418.73 292.25Z" fill="white"/>
<path opacity="0.11" d="M523.182 196.457C523.454 196.281 523.532 195.917 523.355 195.645C523.179 195.373 522.815 195.296 522.543 195.472C522.271 195.649 522.194 196.012 522.37 196.284C522.547 196.556 522.91 196.634 523.182 196.457Z" fill="white"/>
<path opacity="0.11" d="M604.332 194.203C604.604 194.027 604.681 193.663 604.504 193.391C604.328 193.119 603.965 193.042 603.693 193.219C603.421 193.395 603.343 193.759 603.52 194.03C603.696 194.302 604.06 194.38 604.332 194.203Z" fill="white"/>
<path opacity="0.11" d="M695.722 127.896C695.994 127.719 696.072 127.356 695.895 127.084C695.719 126.812 695.355 126.734 695.083 126.911C694.811 127.087 694.734 127.451 694.91 127.723C695.087 127.995 695.45 128.072 695.722 127.896Z" fill="white"/>
<path opacity="0.3" d="M436.44 242.949C436.712 242.773 436.789 242.409 436.613 242.137C436.436 241.866 436.073 241.788 435.801 241.965C435.529 242.141 435.452 242.505 435.628 242.777C435.805 243.049 436.168 243.126 436.44 242.949Z" fill="white"/>
<path d="M532.479 142.819C532.751 142.642 532.828 142.279 532.652 142.007C532.476 141.735 532.112 141.657 531.84 141.834C531.568 142.01 531.491 142.374 531.667 142.646C531.844 142.918 532.207 142.995 532.479 142.819Z" fill="white"/>
<path d="M607.706 92.5998C607.978 92.4234 608.055 92.0599 607.879 91.7879C607.702 91.516 607.339 91.4386 607.067 91.615C606.795 91.7915 606.717 92.155 606.894 92.427C607.07 92.6989 607.434 92.7763 607.706 92.5998Z" fill="white"/>
<path d="M528.393 209.881C528.665 209.705 528.743 209.341 528.566 209.069C528.39 208.797 528.026 208.72 527.754 208.896C527.482 209.073 527.405 209.436 527.581 209.708C527.758 209.98 528.121 210.058 528.393 209.881Z" fill="white"/>
<path opacity="0.3" d="M493.909 232.259C494.181 232.083 494.258 231.719 494.082 231.447C493.905 231.175 493.542 231.098 493.27 231.274C492.998 231.451 492.92 231.814 493.097 232.086C493.273 232.358 493.637 232.435 493.909 232.259Z" fill="white"/>
<path opacity="0.11" d="M433.699 227.929C433.971 227.752 434.048 227.389 433.872 227.117C433.695 226.845 433.332 226.768 433.06 226.944C432.788 227.121 432.71 227.484 432.887 227.756C433.063 228.028 433.427 228.105 433.699 227.929Z" fill="white"/>
<path opacity="0.3" d="M549.026 148.885C549.298 148.708 549.375 148.345 549.199 148.073C549.022 147.801 548.659 147.724 548.387 147.9C548.115 148.077 548.038 148.44 548.214 148.712C548.391 148.984 548.754 149.061 549.026 148.885Z" fill="white"/>
<path opacity="0.3" d="M542.847 213.805C543.119 213.628 543.197 213.265 543.02 212.993C542.844 212.721 542.48 212.644 542.208 212.82C541.936 212.997 541.859 213.36 542.035 213.632C542.212 213.904 542.575 213.981 542.847 213.805Z" fill="white"/>
<path opacity="0.3" d="M486.432 257.414C486.704 257.238 486.782 256.874 486.605 256.602C486.429 256.33 486.065 256.253 485.793 256.429C485.521 256.606 485.444 256.969 485.62 257.241C485.797 257.513 486.16 257.591 486.432 257.414Z" fill="white"/>
<path opacity="0.3" d="M450.729 233.681C451.001 233.504 451.078 233.141 450.902 232.869C450.726 232.597 450.362 232.52 450.09 232.696C449.818 232.873 449.741 233.236 449.917 233.508C450.094 233.78 450.457 233.857 450.729 233.681Z" fill="white"/>
<path opacity="0.3" d="M756.182 33.3527C756.454 33.1762 756.532 32.8127 756.355 32.5408C756.179 32.2688 755.815 32.1914 755.543 32.3679C755.271 32.5444 755.194 32.908 755.37 33.1799C755.547 33.4518 755.91 33.5292 756.182 33.3527Z" fill="white"/>
<path opacity="0.11" d="M663.761 64.6243C664.033 64.4478 664.111 64.0842 663.934 63.8123C663.758 63.5403 663.394 63.463 663.122 63.6394C662.85 63.8159 662.773 64.1794 662.949 64.4514C663.126 64.7233 663.489 64.8007 663.761 64.6243Z" fill="white"/>
<path opacity="0.11" d="M756.629 63.1643C756.9 62.9878 756.978 62.6243 756.801 62.3524C756.625 62.0804 756.261 62.003 755.989 62.1795C755.718 62.356 755.64 62.7195 755.817 62.9914C755.993 63.2634 756.357 63.3408 756.629 63.1643Z" fill="white"/>
<path opacity="0.3" d="M634.869 148.484C635.414 148.131 635.569 147.403 635.215 146.859C634.862 146.314 634.135 146.159 633.59 146.513C633.046 146.866 632.891 147.594 633.244 148.138C633.597 148.682 634.325 148.837 634.869 148.484Z" fill="white"/>
<path opacity="0.11" d="M654.347 114.843C654.891 114.49 655.046 113.762 654.693 113.218C654.34 112.674 653.612 112.519 653.068 112.872C652.523 113.225 652.368 113.953 652.722 114.497C653.075 115.042 653.803 115.197 654.347 114.843Z" fill="white"/>
<path d="M642.913 97.7602C643.321 97.4953 643.437 96.9497 643.172 96.5416C642.908 96.1334 642.362 96.0173 641.954 96.2821C641.546 96.547 641.43 97.0926 641.694 97.5007C641.959 97.9089 642.505 98.0251 642.913 97.7602Z" fill="white"/>
<path d="M642.491 171.545C642.899 171.28 643.015 170.735 642.751 170.327C642.486 169.919 641.94 169.802 641.532 170.067C641.124 170.332 641.008 170.878 641.273 171.286C641.537 171.694 642.083 171.81 642.491 171.545Z" fill="white"/>
<path d="M812.436 75.2592C812.845 74.9943 812.961 74.4487 812.696 74.0406C812.431 73.6324 811.885 73.5163 811.477 73.7812C811.069 74.046 810.953 74.5916 811.218 74.9998C811.483 75.4079 812.028 75.5241 812.436 75.2592Z" fill="white"/>
<path d="M487.28 274.367C487.688 274.102 487.804 273.556 487.54 273.148C487.275 272.74 486.729 272.624 486.321 272.889C485.913 273.153 485.797 273.699 486.062 274.107C486.326 274.515 486.872 274.631 487.28 274.367Z" fill="white"/>
<path d="M414.413 305.555C414.821 305.29 414.937 304.745 414.672 304.336C414.408 303.928 413.862 303.812 413.454 304.077C413.046 304.342 412.93 304.887 413.194 305.296C413.459 305.704 414.005 305.82 414.413 305.555Z" fill="white"/>
<path d="M393.25 291.285C393.658 291.02 393.774 290.474 393.509 290.066C393.245 289.658 392.699 289.542 392.291 289.807C391.883 290.071 391.766 290.617 392.031 291.025C392.296 291.433 392.842 291.549 393.25 291.285Z" fill="white"/>
<path d="M625.663 122.958C626.071 122.694 626.187 122.148 625.922 121.74C625.658 121.332 625.112 121.216 624.704 121.48C624.296 121.745 624.18 122.291 624.444 122.699C624.709 123.107 625.255 123.223 625.663 122.958Z" fill="white"/>
<path d="M563.601 215.039C564.009 214.774 564.125 214.228 563.86 213.82C563.595 213.412 563.049 213.296 562.641 213.56C562.233 213.825 562.117 214.371 562.382 214.779C562.647 215.187 563.192 215.303 563.601 215.039Z" fill="white"/>
<path d="M701.491 155.66C701.899 155.395 702.015 154.849 701.751 154.441C701.486 154.033 700.94 153.917 700.532 154.182C700.124 154.446 700.008 154.992 700.273 155.4C700.537 155.808 701.083 155.924 701.491 155.66Z" fill="white"/>
<path d="M810.296 37.4408C810.704 37.176 810.82 36.6304 810.555 36.2222C810.29 35.8141 809.745 35.6979 809.337 35.9628C808.929 36.2277 808.812 36.7733 809.077 37.1814C809.342 37.5896 809.888 37.7057 810.296 37.4408Z" fill="white"/>
<path d="M804.539 2.67424C804.947 2.40936 805.063 1.86378 804.798 1.45563C804.534 1.04748 803.988 0.931323 803.58 1.1962C803.172 1.46107 803.056 2.00665 803.32 2.4148C803.585 2.82295 804.131 2.93911 804.539 2.67424Z" fill="white"/>
<path opacity="0.3" d="M683.869 71.8765C684.414 71.5233 684.569 70.7956 684.215 70.2513C683.862 69.7069 683.135 69.552 682.59 69.9053C682.046 70.2585 681.891 70.9862 682.244 71.5306C682.597 72.0749 683.325 72.2298 683.869 71.8765Z" fill="white"/>
<path d="M661.174 36.902C661.718 36.5487 661.873 35.821 661.52 35.2767C661.167 34.7323 660.439 34.5774 659.895 34.9307C659.35 35.2839 659.196 36.0116 659.549 36.5559C659.902 37.1003 660.63 37.2552 661.174 36.902Z" fill="white"/>
<path d="M716.28 66.2514C716.688 65.9865 716.805 65.4409 716.54 65.0328C716.275 64.6246 715.729 64.5085 715.321 64.7733C714.913 65.0382 714.797 65.5838 715.062 65.9919C715.326 66.4001 715.872 66.5163 716.28 66.2514Z" fill="white"/>
<path opacity="0.3" d="M727.705 31.5328C728.25 31.1795 728.405 30.4519 728.051 29.9075C727.698 29.3632 726.97 29.2083 726.426 29.5615C725.882 29.9148 725.727 30.6425 726.08 31.1868C726.433 31.7312 727.161 31.8861 727.705 31.5328Z" fill="white"/>
<path opacity="0.3" d="M799.175 34.86C799.719 34.5067 799.874 33.779 799.521 33.2347C799.168 32.6903 798.44 32.5354 797.896 32.8887C797.351 33.2419 797.197 33.9696 797.55 34.514C797.903 35.0583 798.631 35.2132 799.175 34.86Z" fill="white"/>
<path opacity="0.3" d="M742.175 73.2486C742.719 72.8954 742.874 72.1677 742.521 71.6234C742.168 71.079 741.44 70.9241 740.896 71.2774C740.351 71.6306 740.197 72.3583 740.55 72.9026C740.903 73.447 741.631 73.6019 742.175 73.2486Z" fill="white"/>
<path opacity="0.3" d="M464.839 265.128C465.384 264.774 465.538 264.047 465.185 263.502C464.832 262.958 464.104 262.803 463.56 263.156C463.016 263.51 462.861 264.237 463.214 264.782C463.567 265.326 464.295 265.481 464.839 265.128Z" fill="white"/>
<path opacity="0.3" d="M407.347 263.931C407.891 263.578 408.046 262.85 407.693 262.306C407.34 261.762 406.612 261.607 406.068 261.96C405.523 262.313 405.368 263.041 405.722 263.585C406.075 264.13 406.803 264.285 407.347 263.931Z" fill="white"/>
<path opacity="0.11" d="M769.386 33.1891C769.93 32.8358 770.085 32.1081 769.732 31.5638C769.379 31.0194 768.651 30.8645 768.107 31.2178C767.562 31.5711 767.407 32.2987 767.761 32.8431C768.114 33.3874 768.842 33.5423 769.386 33.1891Z" fill="white"/>
<path opacity="0.3" d="M466.925 201.465C467.469 201.112 467.624 200.384 467.271 199.84C466.918 199.296 466.19 199.141 465.646 199.494C465.101 199.847 464.947 200.575 465.3 201.119C465.653 201.664 466.381 201.819 466.925 201.465Z" fill="white"/>
<path opacity="0.11" d="M447.23 200.245C447.774 199.891 447.929 199.164 447.576 198.619C447.222 198.075 446.495 197.92 445.95 198.273C445.406 198.627 445.251 199.354 445.604 199.899C445.958 200.443 446.685 200.598 447.23 200.245Z" fill="white"/>
<path opacity="0.3" d="M463.752 234.329C464.297 233.975 464.451 233.248 464.098 232.703C463.745 232.159 463.017 232.004 462.473 232.357C461.929 232.711 461.774 233.438 462.127 233.983C462.48 234.527 463.208 234.682 463.752 234.329Z" fill="white"/>
<path d="M494.218 213.856C494.626 213.591 494.742 213.045 494.477 212.637C494.212 212.229 493.667 212.113 493.259 212.378C492.85 212.643 492.734 213.188 492.999 213.596C493.264 214.005 493.81 214.121 494.218 213.856Z" fill="white"/>
</g>
</svg>
