<svg width="154" height="22" viewBox="0 0 154 22" fill="none" xmlns="http://www.w3.org/2000/svg">
<path fill-rule="evenodd" clip-rule="evenodd" d="M15.715 21.2165H21.2307V16.4572L25.9885 21.2165H41.6626V15.2474H31.9577L41.6626 5.54246L36.9034 0.783291L26.7464 10.9403V0.783203H21.2307V5.54367L16.4729 0.783203H0.798828V6.75231H10.5037L0.798828 16.4572L5.55799 21.2164L15.715 11.0594V21.2165ZM25.0708 14.8397C27.191 12.7196 27.19 9.28122 25.0699 7.16108C22.9498 5.04094 19.5114 5.04001 17.3912 7.16015C15.2711 9.2803 15.272 12.7187 17.3922 14.8388C19.5123 16.9589 22.9507 16.9599 25.0708 14.8397Z" fill="#FCFCFC"/>
<path d="M138.791 8.07208V13.9282L140.255 15.3922H146.111L147.575 13.9282V8.07208L146.111 6.60806H140.255L138.791 8.07208ZM132.935 16.8562V5.14403L137.327 0.751953H149.039L153.431 5.14403V16.8562L149.039 21.2483H137.327L132.935 16.8562Z" fill="#FCFCFC"/>
<path d="M114.366 11.0001V21.2483H108.51V0.751953H112.902L123.151 11.0001V0.751953H129.007V21.2483H124.615L114.366 11.0001Z" fill="#FCFCFC"/>
<path d="M84.0864 11.0001V0.751953H89.9425V8.07208L91.4066 9.53611H97.2627L98.7267 8.07208V0.751953H104.583V11.0001L100.191 15.3922H97.2627V21.2483H91.4066V15.3922H88.4785L84.0864 11.0001Z" fill="#FCFCFC"/>
<path d="M59.6626 5.14403L64.0547 0.751953H80.159V6.60806H66.9827L66.2507 7.34007L66.9827 8.07208H75.7669L80.159 12.4642V16.8562L75.7669 21.2483H59.6626V15.3922H72.8388L73.5708 14.6602L72.8388 13.9282H64.0547L59.6626 9.53611V5.14403Z" fill="#FCFCFC"/>
</svg>
