<svg width="107" height="25" viewBox="0 0 107 25" fill="none" xmlns="http://www.w3.org/2000/svg">
<g clip-path="url(#clip0_40287_23548)">
<path fill-rule="evenodd" clip-rule="evenodd" d="M8.49699 16.4998H12.497V12.4999H8.49699V8.49992H16.4969V20.4998H4.49703V16.4998H0.49707V0.5H16.4969V4.49996H4.49703V8.49992V16.4998H8.49699Z" fill="white"/>
<path d="M20.4961 4.5H16.4961V8.49996H20.4961V4.5Z" fill="white"/>
<path d="M4.49703 20.5H0.49707V24.5H4.49703V20.5Z" fill="white"/>
<path d="M36.2983 19.3834C31.9975 19.3834 30.0967 16.465 30.0967 12.6634C30.0967 8.88096 32.1127 5.94336 36.6439 5.94336C40.5799 5.94336 42.4807 7.67136 42.8263 10.7818H40.7719C40.5031 8.65056 39.2743 7.57536 36.5671 7.57536C33.4759 7.57536 32.1703 9.34176 32.1703 12.6634C32.1703 15.9466 33.3991 17.7514 36.5863 17.7514C39.5815 17.7514 40.6375 16.0618 40.8871 14.1226H35.4919V12.6634H42.8071V19.057H41.0215V16.3498C40.4263 18.193 38.7751 19.3834 36.2983 19.3834Z" fill="white"/>
<path d="M47.9196 19.3069C45.9612 19.3069 44.7324 18.2509 44.7324 16.4845C44.7324 14.9485 45.5004 13.9501 47.6508 13.5853L50.0508 13.1821C50.9724 13.0285 51.3948 12.7405 51.3948 12.0685C51.3948 11.2045 50.934 10.6093 49.2828 10.6093C47.7084 10.6093 46.9596 11.2429 46.8636 12.4525H44.9436C44.9628 10.4173 46.4796 9.13086 49.206 9.13086C51.8556 9.13086 53.1612 10.3405 53.1612 12.1069V16.8685C53.1612 17.5789 53.1804 18.1549 53.2572 19.0573H51.51C51.4332 18.3085 51.3948 17.6557 51.3948 16.8877C51.0108 18.0973 49.9548 19.3069 47.9196 19.3069ZM48.3228 17.8285C50.3388 17.8285 51.3948 16.3117 51.3948 14.3917V13.8157C50.8764 14.1997 50.262 14.3533 49.686 14.4877L48.3612 14.7949C47.1708 15.0637 46.6524 15.5245 46.6524 16.4077C46.6524 17.3293 47.3244 17.8285 48.3228 17.8285Z" fill="white"/>
<path d="M62.0682 9.45703H63.9882V19.057H62.0682V16.9642C61.5114 18.3658 60.4746 19.3642 58.6698 19.3642C56.1162 19.3642 55.0986 17.9626 55.0986 15.4474V9.45703H57.0186V15.2746C57.0186 17.2906 57.9786 17.7706 59.265 17.7706C60.9738 17.7706 62.0682 16.369 62.0682 13.5082V9.45703Z" fill="white"/>
<path d="M71.6882 9.15039C74.2418 9.15039 75.1826 10.552 75.1826 13.0672V19.0576H73.2626V13.24C73.2626 11.224 72.341 10.744 71.1314 10.744C69.2498 10.744 68.213 11.9536 68.213 15.0064V19.0576H66.293V9.45759H68.213V11.608C68.789 10.1872 69.845 9.15039 71.6882 9.15039Z" fill="white"/>
<path d="M81.0943 19.0567C78.7711 19.0567 78.1951 18.1543 78.1951 16.2343V10.9351H76.3711V9.61983L78.1951 9.45671L79.1551 7.28711H80.1151V9.45671H83.1871V10.9351H80.1151V17.5207H82.9951V19.0567H81.0943Z" fill="white"/>
<path d="M84.8838 19.0572V5.61719H86.8038V19.0572H84.8838Z" fill="white"/>
<path d="M93.4923 17.944C95.2395 17.944 96.0075 17.1568 96.2763 16.1584H98.0427C97.8699 17.4832 96.8139 19.3648 93.4347 19.3648C90.0171 19.3648 88.5771 17.08 88.5771 14.2384C88.5771 11.4352 90.1515 9.15039 93.4347 9.15039C96.4875 9.15039 98.0619 11.32 98.0619 14.0656C98.0619 14.3152 98.0619 14.5456 98.0235 14.7952H90.4587C90.6123 17.2144 91.8411 17.944 93.4923 17.944ZM93.4539 10.5712C91.8027 10.5712 90.7083 11.2624 90.4779 13.3936H96.2187C96.1227 11.4544 95.1627 10.5712 93.4539 10.5712Z" fill="white"/>
<path d="M103.446 19.0567C101.123 19.0567 100.547 18.1543 100.547 16.2343V10.9351H98.7227V9.61983L100.547 9.45671L101.507 7.28711H102.467V9.45671H105.539V10.9351H102.467V17.5207H105.347V19.0567H103.446Z" fill="white"/>
<mask id="mask0_40287_23548" style="mask-type:luminance" maskUnits="userSpaceOnUse" x="29" y="4" width="78" height="16">
<path d="M106.097 4.61719H29.0967V19.6172H106.097V4.61719Z" fill="white"/>
<path d="M36.2983 19.3834C31.9975 19.3834 30.0967 16.465 30.0967 12.6634C30.0967 8.88096 32.1127 5.94336 36.6439 5.94336C40.5799 5.94336 42.4807 7.67136 42.8263 10.7818H40.7719C40.5031 8.65056 39.2743 7.57536 36.5671 7.57536C33.4759 7.57536 32.1703 9.34176 32.1703 12.6634C32.1703 15.9466 33.3991 17.7514 36.5863 17.7514C39.5815 17.7514 40.6375 16.0618 40.8871 14.1226H35.4919V12.6634H42.8071V19.057H41.0215V16.3498C40.4263 18.193 38.7751 19.3834 36.2983 19.3834Z" fill="black"/>
<path d="M47.9196 19.3069C45.9612 19.3069 44.7324 18.2509 44.7324 16.4845C44.7324 14.9485 45.5004 13.9501 47.6508 13.5853L50.0508 13.1821C50.9724 13.0285 51.3948 12.7405 51.3948 12.0685C51.3948 11.2045 50.934 10.6093 49.2828 10.6093C47.7084 10.6093 46.9596 11.2429 46.8636 12.4525H44.9436C44.9628 10.4173 46.4796 9.13086 49.206 9.13086C51.8556 9.13086 53.1612 10.3405 53.1612 12.1069V16.8685C53.1612 17.5789 53.1804 18.1549 53.2572 19.0573H51.51C51.4332 18.3085 51.3948 17.6557 51.3948 16.8877C51.0108 18.0973 49.9548 19.3069 47.9196 19.3069ZM48.3228 17.8285C50.3388 17.8285 51.3948 16.3117 51.3948 14.3917V13.8157C50.8764 14.1997 50.262 14.3533 49.686 14.4877L48.3612 14.7949C47.1708 15.0637 46.6524 15.5245 46.6524 16.4077C46.6524 17.3293 47.3244 17.8285 48.3228 17.8285Z" fill="black"/>
<path d="M62.0682 9.45703H63.9882V19.057H62.0682V16.9642C61.5114 18.3658 60.4746 19.3642 58.6698 19.3642C56.1162 19.3642 55.0986 17.9626 55.0986 15.4474V9.45703H57.0186V15.2746C57.0186 17.2906 57.9786 17.7706 59.265 17.7706C60.9738 17.7706 62.0682 16.369 62.0682 13.5082V9.45703Z" fill="black"/>
<path d="M71.6882 9.15039C74.2418 9.15039 75.1826 10.552 75.1826 13.0672V19.0576H73.2626V13.24C73.2626 11.224 72.341 10.744 71.1314 10.744C69.2498 10.744 68.213 11.9536 68.213 15.0064V19.0576H66.293V9.45759H68.213V11.608C68.789 10.1872 69.845 9.15039 71.6882 9.15039Z" fill="black"/>
<path d="M81.0943 19.0567C78.7711 19.0567 78.1951 18.1543 78.1951 16.2343V10.9351H76.3711V9.61983L78.1951 9.45671L79.1551 7.28711H80.1151V9.45671H83.1871V10.9351H80.1151V17.5207H82.9951V19.0567H81.0943Z" fill="black"/>
<path d="M84.8838 19.0572V5.61719H86.8038V19.0572H84.8838Z" fill="black"/>
<path d="M93.4923 17.944C95.2395 17.944 96.0075 17.1568 96.2763 16.1584H98.0427C97.8699 17.4832 96.8139 19.3648 93.4347 19.3648C90.0171 19.3648 88.5771 17.08 88.5771 14.2384C88.5771 11.4352 90.1515 9.15039 93.4347 9.15039C96.4875 9.15039 98.0619 11.32 98.0619 14.0656C98.0619 14.3152 98.0619 14.5456 98.0235 14.7952H90.4587C90.6123 17.2144 91.8411 17.944 93.4923 17.944ZM93.4539 10.5712C91.8027 10.5712 90.7083 11.2624 90.4779 13.3936H96.2187C96.1227 11.4544 95.1627 10.5712 93.4539 10.5712Z" fill="black"/>
<path d="M103.446 19.0567C101.123 19.0567 100.547 18.1543 100.547 16.2343V10.9351H98.7227V9.61983L100.547 9.45671L101.507 7.28711H102.467V9.45671H105.539V10.9351H102.467V17.5207H105.347V19.0567H103.446Z" fill="black"/>
</mask>
<g mask="url(#mask0_40287_23548)">
<path d="M36.2983 19.3834C31.9975 19.3834 30.0967 16.465 30.0967 12.6634C30.0967 8.88096 32.1127 5.94336 36.6439 5.94336C40.5799 5.94336 42.4807 7.67136 42.8263 10.7818H40.7719C40.5031 8.65056 39.2743 7.57536 36.5671 7.57536C33.4759 7.57536 32.1703 9.34176 32.1703 12.6634C32.1703 15.9466 33.3991 17.7514 36.5863 17.7514C39.5815 17.7514 40.6375 16.0618 40.8871 14.1226H35.4919V12.6634H42.8071V19.057H41.0215V16.3498C40.4263 18.193 38.7751 19.3834 36.2983 19.3834Z" stroke="white" stroke-width="0.25"/>
</g>
<mask id="mask1_40287_23548" style="mask-type:luminance" maskUnits="userSpaceOnUse" x="29" y="4" width="78" height="16">
<path d="M106.097 4.61719H29.0967V19.6172H106.097V4.61719Z" fill="white"/>
<path d="M36.2983 19.3834C31.9975 19.3834 30.0967 16.465 30.0967 12.6634C30.0967 8.88096 32.1127 5.94336 36.6439 5.94336C40.5799 5.94336 42.4807 7.67136 42.8263 10.7818H40.7719C40.5031 8.65056 39.2743 7.57536 36.5671 7.57536C33.4759 7.57536 32.1703 9.34176 32.1703 12.6634C32.1703 15.9466 33.3991 17.7514 36.5863 17.7514C39.5815 17.7514 40.6375 16.0618 40.8871 14.1226H35.4919V12.6634H42.8071V19.057H41.0215V16.3498C40.4263 18.193 38.7751 19.3834 36.2983 19.3834Z" fill="black"/>
<path d="M47.9196 19.3069C45.9612 19.3069 44.7324 18.2509 44.7324 16.4845C44.7324 14.9485 45.5004 13.9501 47.6508 13.5853L50.0508 13.1821C50.9724 13.0285 51.3948 12.7405 51.3948 12.0685C51.3948 11.2045 50.934 10.6093 49.2828 10.6093C47.7084 10.6093 46.9596 11.2429 46.8636 12.4525H44.9436C44.9628 10.4173 46.4796 9.13086 49.206 9.13086C51.8556 9.13086 53.1612 10.3405 53.1612 12.1069V16.8685C53.1612 17.5789 53.1804 18.1549 53.2572 19.0573H51.51C51.4332 18.3085 51.3948 17.6557 51.3948 16.8877C51.0108 18.0973 49.9548 19.3069 47.9196 19.3069ZM48.3228 17.8285C50.3388 17.8285 51.3948 16.3117 51.3948 14.3917V13.8157C50.8764 14.1997 50.262 14.3533 49.686 14.4877L48.3612 14.7949C47.1708 15.0637 46.6524 15.5245 46.6524 16.4077C46.6524 17.3293 47.3244 17.8285 48.3228 17.8285Z" fill="black"/>
<path d="M62.0682 9.45703H63.9882V19.057H62.0682V16.9642C61.5114 18.3658 60.4746 19.3642 58.6698 19.3642C56.1162 19.3642 55.0986 17.9626 55.0986 15.4474V9.45703H57.0186V15.2746C57.0186 17.2906 57.9786 17.7706 59.265 17.7706C60.9738 17.7706 62.0682 16.369 62.0682 13.5082V9.45703Z" fill="black"/>
<path d="M71.6882 9.15039C74.2418 9.15039 75.1826 10.552 75.1826 13.0672V19.0576H73.2626V13.24C73.2626 11.224 72.341 10.744 71.1314 10.744C69.2498 10.744 68.213 11.9536 68.213 15.0064V19.0576H66.293V9.45759H68.213V11.608C68.789 10.1872 69.845 9.15039 71.6882 9.15039Z" fill="black"/>
<path d="M81.0943 19.0567C78.7711 19.0567 78.1951 18.1543 78.1951 16.2343V10.9351H76.3711V9.61983L78.1951 9.45671L79.1551 7.28711H80.1151V9.45671H83.1871V10.9351H80.1151V17.5207H82.9951V19.0567H81.0943Z" fill="black"/>
<path d="M84.8838 19.0572V5.61719H86.8038V19.0572H84.8838Z" fill="black"/>
<path d="M93.4923 17.944C95.2395 17.944 96.0075 17.1568 96.2763 16.1584H98.0427C97.8699 17.4832 96.8139 19.3648 93.4347 19.3648C90.0171 19.3648 88.5771 17.08 88.5771 14.2384C88.5771 11.4352 90.1515 9.15039 93.4347 9.15039C96.4875 9.15039 98.0619 11.32 98.0619 14.0656C98.0619 14.3152 98.0619 14.5456 98.0235 14.7952H90.4587C90.6123 17.2144 91.8411 17.944 93.4923 17.944ZM93.4539 10.5712C91.8027 10.5712 90.7083 11.2624 90.4779 13.3936H96.2187C96.1227 11.4544 95.1627 10.5712 93.4539 10.5712Z" fill="black"/>
<path d="M103.446 19.0567C101.123 19.0567 100.547 18.1543 100.547 16.2343V10.9351H98.7227V9.61983L100.547 9.45671L101.507 7.28711H102.467V9.45671H105.539V10.9351H102.467V17.5207H105.347V19.0567H103.446Z" fill="black"/>
</mask>
<g mask="url(#mask1_40287_23548)">
<path d="M47.9196 19.3069C45.9612 19.3069 44.7324 18.2509 44.7324 16.4845C44.7324 14.9485 45.5004 13.9501 47.6508 13.5853L50.0508 13.1821C50.9724 13.0285 51.3948 12.7405 51.3948 12.0685C51.3948 11.2045 50.934 10.6093 49.2828 10.6093C47.7084 10.6093 46.9596 11.2429 46.8636 12.4525H44.9436C44.9628 10.4173 46.4796 9.13086 49.206 9.13086C51.8556 9.13086 53.1612 10.3405 53.1612 12.1069V16.8685C53.1612 17.5789 53.1804 18.1549 53.2572 19.0573H51.51C51.4332 18.3085 51.3948 17.6557 51.3948 16.8877C51.0108 18.0973 49.9548 19.3069 47.9196 19.3069ZM48.3228 17.8285C50.3388 17.8285 51.3948 16.3117 51.3948 14.3917V13.8157C50.8764 14.1997 50.262 14.3533 49.686 14.4877L48.3612 14.7949C47.1708 15.0637 46.6524 15.5245 46.6524 16.4077C46.6524 17.3293 47.3244 17.8285 48.3228 17.8285Z" stroke="white" stroke-width="0.25"/>
</g>
<mask id="mask2_40287_23548" style="mask-type:luminance" maskUnits="userSpaceOnUse" x="29" y="4" width="78" height="16">
<path d="M106.097 4.61719H29.0967V19.6172H106.097V4.61719Z" fill="white"/>
<path d="M36.2983 19.3834C31.9975 19.3834 30.0967 16.465 30.0967 12.6634C30.0967 8.88096 32.1127 5.94336 36.6439 5.94336C40.5799 5.94336 42.4807 7.67136 42.8263 10.7818H40.7719C40.5031 8.65056 39.2743 7.57536 36.5671 7.57536C33.4759 7.57536 32.1703 9.34176 32.1703 12.6634C32.1703 15.9466 33.3991 17.7514 36.5863 17.7514C39.5815 17.7514 40.6375 16.0618 40.8871 14.1226H35.4919V12.6634H42.8071V19.057H41.0215V16.3498C40.4263 18.193 38.7751 19.3834 36.2983 19.3834Z" fill="black"/>
<path d="M47.9196 19.3069C45.9612 19.3069 44.7324 18.2509 44.7324 16.4845C44.7324 14.9485 45.5004 13.9501 47.6508 13.5853L50.0508 13.1821C50.9724 13.0285 51.3948 12.7405 51.3948 12.0685C51.3948 11.2045 50.934 10.6093 49.2828 10.6093C47.7084 10.6093 46.9596 11.2429 46.8636 12.4525H44.9436C44.9628 10.4173 46.4796 9.13086 49.206 9.13086C51.8556 9.13086 53.1612 10.3405 53.1612 12.1069V16.8685C53.1612 17.5789 53.1804 18.1549 53.2572 19.0573H51.51C51.4332 18.3085 51.3948 17.6557 51.3948 16.8877C51.0108 18.0973 49.9548 19.3069 47.9196 19.3069ZM48.3228 17.8285C50.3388 17.8285 51.3948 16.3117 51.3948 14.3917V13.8157C50.8764 14.1997 50.262 14.3533 49.686 14.4877L48.3612 14.7949C47.1708 15.0637 46.6524 15.5245 46.6524 16.4077C46.6524 17.3293 47.3244 17.8285 48.3228 17.8285Z" fill="black"/>
<path d="M62.0682 9.45703H63.9882V19.057H62.0682V16.9642C61.5114 18.3658 60.4746 19.3642 58.6698 19.3642C56.1162 19.3642 55.0986 17.9626 55.0986 15.4474V9.45703H57.0186V15.2746C57.0186 17.2906 57.9786 17.7706 59.265 17.7706C60.9738 17.7706 62.0682 16.369 62.0682 13.5082V9.45703Z" fill="black"/>
<path d="M71.6882 9.15039C74.2418 9.15039 75.1826 10.552 75.1826 13.0672V19.0576H73.2626V13.24C73.2626 11.224 72.341 10.744 71.1314 10.744C69.2498 10.744 68.213 11.9536 68.213 15.0064V19.0576H66.293V9.45759H68.213V11.608C68.789 10.1872 69.845 9.15039 71.6882 9.15039Z" fill="black"/>
<path d="M81.0943 19.0567C78.7711 19.0567 78.1951 18.1543 78.1951 16.2343V10.9351H76.3711V9.61983L78.1951 9.45671L79.1551 7.28711H80.1151V9.45671H83.1871V10.9351H80.1151V17.5207H82.9951V19.0567H81.0943Z" fill="black"/>
<path d="M84.8838 19.0572V5.61719H86.8038V19.0572H84.8838Z" fill="black"/>
<path d="M93.4923 17.944C95.2395 17.944 96.0075 17.1568 96.2763 16.1584H98.0427C97.8699 17.4832 96.8139 19.3648 93.4347 19.3648C90.0171 19.3648 88.5771 17.08 88.5771 14.2384C88.5771 11.4352 90.1515 9.15039 93.4347 9.15039C96.4875 9.15039 98.0619 11.32 98.0619 14.0656C98.0619 14.3152 98.0619 14.5456 98.0235 14.7952H90.4587C90.6123 17.2144 91.8411 17.944 93.4923 17.944ZM93.4539 10.5712C91.8027 10.5712 90.7083 11.2624 90.4779 13.3936H96.2187C96.1227 11.4544 95.1627 10.5712 93.4539 10.5712Z" fill="black"/>
<path d="M103.446 19.0567C101.123 19.0567 100.547 18.1543 100.547 16.2343V10.9351H98.7227V9.61983L100.547 9.45671L101.507 7.28711H102.467V9.45671H105.539V10.9351H102.467V17.5207H105.347V19.0567H103.446Z" fill="black"/>
</mask>
<g mask="url(#mask2_40287_23548)">
<path d="M62.0682 9.45703H63.9882V19.057H62.0682V16.9642C61.5114 18.3658 60.4746 19.3642 58.6698 19.3642C56.1162 19.3642 55.0986 17.9626 55.0986 15.4474V9.45703H57.0186V15.2746C57.0186 17.2906 57.9786 17.7706 59.265 17.7706C60.9738 17.7706 62.0682 16.369 62.0682 13.5082V9.45703Z" stroke="white" stroke-width="0.25"/>
</g>
<mask id="mask3_40287_23548" style="mask-type:luminance" maskUnits="userSpaceOnUse" x="29" y="4" width="78" height="16">
<path d="M106.097 4.61719H29.0967V19.6172H106.097V4.61719Z" fill="white"/>
<path d="M36.2983 19.3834C31.9975 19.3834 30.0967 16.465 30.0967 12.6634C30.0967 8.88096 32.1127 5.94336 36.6439 5.94336C40.5799 5.94336 42.4807 7.67136 42.8263 10.7818H40.7719C40.5031 8.65056 39.2743 7.57536 36.5671 7.57536C33.4759 7.57536 32.1703 9.34176 32.1703 12.6634C32.1703 15.9466 33.3991 17.7514 36.5863 17.7514C39.5815 17.7514 40.6375 16.0618 40.8871 14.1226H35.4919V12.6634H42.8071V19.057H41.0215V16.3498C40.4263 18.193 38.7751 19.3834 36.2983 19.3834Z" fill="black"/>
<path d="M47.9196 19.3069C45.9612 19.3069 44.7324 18.2509 44.7324 16.4845C44.7324 14.9485 45.5004 13.9501 47.6508 13.5853L50.0508 13.1821C50.9724 13.0285 51.3948 12.7405 51.3948 12.0685C51.3948 11.2045 50.934 10.6093 49.2828 10.6093C47.7084 10.6093 46.9596 11.2429 46.8636 12.4525H44.9436C44.9628 10.4173 46.4796 9.13086 49.206 9.13086C51.8556 9.13086 53.1612 10.3405 53.1612 12.1069V16.8685C53.1612 17.5789 53.1804 18.1549 53.2572 19.0573H51.51C51.4332 18.3085 51.3948 17.6557 51.3948 16.8877C51.0108 18.0973 49.9548 19.3069 47.9196 19.3069ZM48.3228 17.8285C50.3388 17.8285 51.3948 16.3117 51.3948 14.3917V13.8157C50.8764 14.1997 50.262 14.3533 49.686 14.4877L48.3612 14.7949C47.1708 15.0637 46.6524 15.5245 46.6524 16.4077C46.6524 17.3293 47.3244 17.8285 48.3228 17.8285Z" fill="black"/>
<path d="M62.0682 9.45703H63.9882V19.057H62.0682V16.9642C61.5114 18.3658 60.4746 19.3642 58.6698 19.3642C56.1162 19.3642 55.0986 17.9626 55.0986 15.4474V9.45703H57.0186V15.2746C57.0186 17.2906 57.9786 17.7706 59.265 17.7706C60.9738 17.7706 62.0682 16.369 62.0682 13.5082V9.45703Z" fill="black"/>
<path d="M71.6882 9.15039C74.2418 9.15039 75.1826 10.552 75.1826 13.0672V19.0576H73.2626V13.24C73.2626 11.224 72.341 10.744 71.1314 10.744C69.2498 10.744 68.213 11.9536 68.213 15.0064V19.0576H66.293V9.45759H68.213V11.608C68.789 10.1872 69.845 9.15039 71.6882 9.15039Z" fill="black"/>
<path d="M81.0943 19.0567C78.7711 19.0567 78.1951 18.1543 78.1951 16.2343V10.9351H76.3711V9.61983L78.1951 9.45671L79.1551 7.28711H80.1151V9.45671H83.1871V10.9351H80.1151V17.5207H82.9951V19.0567H81.0943Z" fill="black"/>
<path d="M84.8838 19.0572V5.61719H86.8038V19.0572H84.8838Z" fill="black"/>
<path d="M93.4923 17.944C95.2395 17.944 96.0075 17.1568 96.2763 16.1584H98.0427C97.8699 17.4832 96.8139 19.3648 93.4347 19.3648C90.0171 19.3648 88.5771 17.08 88.5771 14.2384C88.5771 11.4352 90.1515 9.15039 93.4347 9.15039C96.4875 9.15039 98.0619 11.32 98.0619 14.0656C98.0619 14.3152 98.0619 14.5456 98.0235 14.7952H90.4587C90.6123 17.2144 91.8411 17.944 93.4923 17.944ZM93.4539 10.5712C91.8027 10.5712 90.7083 11.2624 90.4779 13.3936H96.2187C96.1227 11.4544 95.1627 10.5712 93.4539 10.5712Z" fill="black"/>
<path d="M103.446 19.0567C101.123 19.0567 100.547 18.1543 100.547 16.2343V10.9351H98.7227V9.61983L100.547 9.45671L101.507 7.28711H102.467V9.45671H105.539V10.9351H102.467V17.5207H105.347V19.0567H103.446Z" fill="black"/>
</mask>
<g mask="url(#mask3_40287_23548)">
<path d="M71.6882 9.15039C74.2418 9.15039 75.1826 10.552 75.1826 13.0672V19.0576H73.2626V13.24C73.2626 11.224 72.341 10.744 71.1314 10.744C69.2498 10.744 68.213 11.9536 68.213 15.0064V19.0576H66.293V9.45759H68.213V11.608C68.789 10.1872 69.845 9.15039 71.6882 9.15039Z" stroke="white" stroke-width="0.25"/>
</g>
<mask id="mask4_40287_23548" style="mask-type:luminance" maskUnits="userSpaceOnUse" x="29" y="4" width="78" height="16">
<path d="M106.097 4.61719H29.0967V19.6172H106.097V4.61719Z" fill="white"/>
<path d="M36.2983 19.3834C31.9975 19.3834 30.0967 16.465 30.0967 12.6634C30.0967 8.88096 32.1127 5.94336 36.6439 5.94336C40.5799 5.94336 42.4807 7.67136 42.8263 10.7818H40.7719C40.5031 8.65056 39.2743 7.57536 36.5671 7.57536C33.4759 7.57536 32.1703 9.34176 32.1703 12.6634C32.1703 15.9466 33.3991 17.7514 36.5863 17.7514C39.5815 17.7514 40.6375 16.0618 40.8871 14.1226H35.4919V12.6634H42.8071V19.057H41.0215V16.3498C40.4263 18.193 38.7751 19.3834 36.2983 19.3834Z" fill="black"/>
<path d="M47.9196 19.3069C45.9612 19.3069 44.7324 18.2509 44.7324 16.4845C44.7324 14.9485 45.5004 13.9501 47.6508 13.5853L50.0508 13.1821C50.9724 13.0285 51.3948 12.7405 51.3948 12.0685C51.3948 11.2045 50.934 10.6093 49.2828 10.6093C47.7084 10.6093 46.9596 11.2429 46.8636 12.4525H44.9436C44.9628 10.4173 46.4796 9.13086 49.206 9.13086C51.8556 9.13086 53.1612 10.3405 53.1612 12.1069V16.8685C53.1612 17.5789 53.1804 18.1549 53.2572 19.0573H51.51C51.4332 18.3085 51.3948 17.6557 51.3948 16.8877C51.0108 18.0973 49.9548 19.3069 47.9196 19.3069ZM48.3228 17.8285C50.3388 17.8285 51.3948 16.3117 51.3948 14.3917V13.8157C50.8764 14.1997 50.262 14.3533 49.686 14.4877L48.3612 14.7949C47.1708 15.0637 46.6524 15.5245 46.6524 16.4077C46.6524 17.3293 47.3244 17.8285 48.3228 17.8285Z" fill="black"/>
<path d="M62.0682 9.45703H63.9882V19.057H62.0682V16.9642C61.5114 18.3658 60.4746 19.3642 58.6698 19.3642C56.1162 19.3642 55.0986 17.9626 55.0986 15.4474V9.45703H57.0186V15.2746C57.0186 17.2906 57.9786 17.7706 59.265 17.7706C60.9738 17.7706 62.0682 16.369 62.0682 13.5082V9.45703Z" fill="black"/>
<path d="M71.6882 9.15039C74.2418 9.15039 75.1826 10.552 75.1826 13.0672V19.0576H73.2626V13.24C73.2626 11.224 72.341 10.744 71.1314 10.744C69.2498 10.744 68.213 11.9536 68.213 15.0064V19.0576H66.293V9.45759H68.213V11.608C68.789 10.1872 69.845 9.15039 71.6882 9.15039Z" fill="black"/>
<path d="M81.0943 19.0567C78.7711 19.0567 78.1951 18.1543 78.1951 16.2343V10.9351H76.3711V9.61983L78.1951 9.45671L79.1551 7.28711H80.1151V9.45671H83.1871V10.9351H80.1151V17.5207H82.9951V19.0567H81.0943Z" fill="black"/>
<path d="M84.8838 19.0572V5.61719H86.8038V19.0572H84.8838Z" fill="black"/>
<path d="M93.4923 17.944C95.2395 17.944 96.0075 17.1568 96.2763 16.1584H98.0427C97.8699 17.4832 96.8139 19.3648 93.4347 19.3648C90.0171 19.3648 88.5771 17.08 88.5771 14.2384C88.5771 11.4352 90.1515 9.15039 93.4347 9.15039C96.4875 9.15039 98.0619 11.32 98.0619 14.0656C98.0619 14.3152 98.0619 14.5456 98.0235 14.7952H90.4587C90.6123 17.2144 91.8411 17.944 93.4923 17.944ZM93.4539 10.5712C91.8027 10.5712 90.7083 11.2624 90.4779 13.3936H96.2187C96.1227 11.4544 95.1627 10.5712 93.4539 10.5712Z" fill="black"/>
<path d="M103.446 19.0567C101.123 19.0567 100.547 18.1543 100.547 16.2343V10.9351H98.7227V9.61983L100.547 9.45671L101.507 7.28711H102.467V9.45671H105.539V10.9351H102.467V17.5207H105.347V19.0567H103.446Z" fill="black"/>
</mask>
<g mask="url(#mask4_40287_23548)">
<path d="M81.0943 19.0567C78.7711 19.0567 78.1951 18.1543 78.1951 16.2343V10.9351H76.3711V9.61983L78.1951 9.45671L79.1551 7.28711H80.1151V9.45671H83.1871V10.9351H80.1151V17.5207H82.9951V19.0567H81.0943Z" stroke="white" stroke-width="0.25"/>
</g>
<mask id="mask5_40287_23548" style="mask-type:luminance" maskUnits="userSpaceOnUse" x="29" y="4" width="78" height="16">
<path d="M106.097 4.61719H29.0967V19.6172H106.097V4.61719Z" fill="white"/>
<path d="M36.2983 19.3834C31.9975 19.3834 30.0967 16.465 30.0967 12.6634C30.0967 8.88096 32.1127 5.94336 36.6439 5.94336C40.5799 5.94336 42.4807 7.67136 42.8263 10.7818H40.7719C40.5031 8.65056 39.2743 7.57536 36.5671 7.57536C33.4759 7.57536 32.1703 9.34176 32.1703 12.6634C32.1703 15.9466 33.3991 17.7514 36.5863 17.7514C39.5815 17.7514 40.6375 16.0618 40.8871 14.1226H35.4919V12.6634H42.8071V19.057H41.0215V16.3498C40.4263 18.193 38.7751 19.3834 36.2983 19.3834Z" fill="black"/>
<path d="M47.9196 19.3069C45.9612 19.3069 44.7324 18.2509 44.7324 16.4845C44.7324 14.9485 45.5004 13.9501 47.6508 13.5853L50.0508 13.1821C50.9724 13.0285 51.3948 12.7405 51.3948 12.0685C51.3948 11.2045 50.934 10.6093 49.2828 10.6093C47.7084 10.6093 46.9596 11.2429 46.8636 12.4525H44.9436C44.9628 10.4173 46.4796 9.13086 49.206 9.13086C51.8556 9.13086 53.1612 10.3405 53.1612 12.1069V16.8685C53.1612 17.5789 53.1804 18.1549 53.2572 19.0573H51.51C51.4332 18.3085 51.3948 17.6557 51.3948 16.8877C51.0108 18.0973 49.9548 19.3069 47.9196 19.3069ZM48.3228 17.8285C50.3388 17.8285 51.3948 16.3117 51.3948 14.3917V13.8157C50.8764 14.1997 50.262 14.3533 49.686 14.4877L48.3612 14.7949C47.1708 15.0637 46.6524 15.5245 46.6524 16.4077C46.6524 17.3293 47.3244 17.8285 48.3228 17.8285Z" fill="black"/>
<path d="M62.0682 9.45703H63.9882V19.057H62.0682V16.9642C61.5114 18.3658 60.4746 19.3642 58.6698 19.3642C56.1162 19.3642 55.0986 17.9626 55.0986 15.4474V9.45703H57.0186V15.2746C57.0186 17.2906 57.9786 17.7706 59.265 17.7706C60.9738 17.7706 62.0682 16.369 62.0682 13.5082V9.45703Z" fill="black"/>
<path d="M71.6882 9.15039C74.2418 9.15039 75.1826 10.552 75.1826 13.0672V19.0576H73.2626V13.24C73.2626 11.224 72.341 10.744 71.1314 10.744C69.2498 10.744 68.213 11.9536 68.213 15.0064V19.0576H66.293V9.45759H68.213V11.608C68.789 10.1872 69.845 9.15039 71.6882 9.15039Z" fill="black"/>
<path d="M81.0943 19.0567C78.7711 19.0567 78.1951 18.1543 78.1951 16.2343V10.9351H76.3711V9.61983L78.1951 9.45671L79.1551 7.28711H80.1151V9.45671H83.1871V10.9351H80.1151V17.5207H82.9951V19.0567H81.0943Z" fill="black"/>
<path d="M84.8838 19.0572V5.61719H86.8038V19.0572H84.8838Z" fill="black"/>
<path d="M93.4923 17.944C95.2395 17.944 96.0075 17.1568 96.2763 16.1584H98.0427C97.8699 17.4832 96.8139 19.3648 93.4347 19.3648C90.0171 19.3648 88.5771 17.08 88.5771 14.2384C88.5771 11.4352 90.1515 9.15039 93.4347 9.15039C96.4875 9.15039 98.0619 11.32 98.0619 14.0656C98.0619 14.3152 98.0619 14.5456 98.0235 14.7952H90.4587C90.6123 17.2144 91.8411 17.944 93.4923 17.944ZM93.4539 10.5712C91.8027 10.5712 90.7083 11.2624 90.4779 13.3936H96.2187C96.1227 11.4544 95.1627 10.5712 93.4539 10.5712Z" fill="black"/>
<path d="M103.446 19.0567C101.123 19.0567 100.547 18.1543 100.547 16.2343V10.9351H98.7227V9.61983L100.547 9.45671L101.507 7.28711H102.467V9.45671H105.539V10.9351H102.467V17.5207H105.347V19.0567H103.446Z" fill="black"/>
</mask>
<g mask="url(#mask5_40287_23548)">
<path d="M84.8838 19.0572V5.61719H86.8038V19.0572H84.8838Z" stroke="white" stroke-width="0.25"/>
</g>
<mask id="mask6_40287_23548" style="mask-type:luminance" maskUnits="userSpaceOnUse" x="29" y="4" width="78" height="16">
<path d="M106.097 4.61719H29.0967V19.6172H106.097V4.61719Z" fill="white"/>
<path d="M36.2983 19.3834C31.9975 19.3834 30.0967 16.465 30.0967 12.6634C30.0967 8.88096 32.1127 5.94336 36.6439 5.94336C40.5799 5.94336 42.4807 7.67136 42.8263 10.7818H40.7719C40.5031 8.65056 39.2743 7.57536 36.5671 7.57536C33.4759 7.57536 32.1703 9.34176 32.1703 12.6634C32.1703 15.9466 33.3991 17.7514 36.5863 17.7514C39.5815 17.7514 40.6375 16.0618 40.8871 14.1226H35.4919V12.6634H42.8071V19.057H41.0215V16.3498C40.4263 18.193 38.7751 19.3834 36.2983 19.3834Z" fill="black"/>
<path d="M47.9196 19.3069C45.9612 19.3069 44.7324 18.2509 44.7324 16.4845C44.7324 14.9485 45.5004 13.9501 47.6508 13.5853L50.0508 13.1821C50.9724 13.0285 51.3948 12.7405 51.3948 12.0685C51.3948 11.2045 50.934 10.6093 49.2828 10.6093C47.7084 10.6093 46.9596 11.2429 46.8636 12.4525H44.9436C44.9628 10.4173 46.4796 9.13086 49.206 9.13086C51.8556 9.13086 53.1612 10.3405 53.1612 12.1069V16.8685C53.1612 17.5789 53.1804 18.1549 53.2572 19.0573H51.51C51.4332 18.3085 51.3948 17.6557 51.3948 16.8877C51.0108 18.0973 49.9548 19.3069 47.9196 19.3069ZM48.3228 17.8285C50.3388 17.8285 51.3948 16.3117 51.3948 14.3917V13.8157C50.8764 14.1997 50.262 14.3533 49.686 14.4877L48.3612 14.7949C47.1708 15.0637 46.6524 15.5245 46.6524 16.4077C46.6524 17.3293 47.3244 17.8285 48.3228 17.8285Z" fill="black"/>
<path d="M62.0682 9.45703H63.9882V19.057H62.0682V16.9642C61.5114 18.3658 60.4746 19.3642 58.6698 19.3642C56.1162 19.3642 55.0986 17.9626 55.0986 15.4474V9.45703H57.0186V15.2746C57.0186 17.2906 57.9786 17.7706 59.265 17.7706C60.9738 17.7706 62.0682 16.369 62.0682 13.5082V9.45703Z" fill="black"/>
<path d="M71.6882 9.15039C74.2418 9.15039 75.1826 10.552 75.1826 13.0672V19.0576H73.2626V13.24C73.2626 11.224 72.341 10.744 71.1314 10.744C69.2498 10.744 68.213 11.9536 68.213 15.0064V19.0576H66.293V9.45759H68.213V11.608C68.789 10.1872 69.845 9.15039 71.6882 9.15039Z" fill="black"/>
<path d="M81.0943 19.0567C78.7711 19.0567 78.1951 18.1543 78.1951 16.2343V10.9351H76.3711V9.61983L78.1951 9.45671L79.1551 7.28711H80.1151V9.45671H83.1871V10.9351H80.1151V17.5207H82.9951V19.0567H81.0943Z" fill="black"/>
<path d="M84.8838 19.0572V5.61719H86.8038V19.0572H84.8838Z" fill="black"/>
<path d="M93.4923 17.944C95.2395 17.944 96.0075 17.1568 96.2763 16.1584H98.0427C97.8699 17.4832 96.8139 19.3648 93.4347 19.3648C90.0171 19.3648 88.5771 17.08 88.5771 14.2384C88.5771 11.4352 90.1515 9.15039 93.4347 9.15039C96.4875 9.15039 98.0619 11.32 98.0619 14.0656C98.0619 14.3152 98.0619 14.5456 98.0235 14.7952H90.4587C90.6123 17.2144 91.8411 17.944 93.4923 17.944ZM93.4539 10.5712C91.8027 10.5712 90.7083 11.2624 90.4779 13.3936H96.2187C96.1227 11.4544 95.1627 10.5712 93.4539 10.5712Z" fill="black"/>
<path d="M103.446 19.0567C101.123 19.0567 100.547 18.1543 100.547 16.2343V10.9351H98.7227V9.61983L100.547 9.45671L101.507 7.28711H102.467V9.45671H105.539V10.9351H102.467V17.5207H105.347V19.0567H103.446Z" fill="black"/>
</mask>
<g mask="url(#mask6_40287_23548)">
<path d="M93.4923 17.944C95.2395 17.944 96.0075 17.1568 96.2763 16.1584H98.0427C97.8699 17.4832 96.8139 19.3648 93.4347 19.3648C90.0171 19.3648 88.5771 17.08 88.5771 14.2384C88.5771 11.4352 90.1515 9.15039 93.4347 9.15039C96.4875 9.15039 98.0619 11.32 98.0619 14.0656C98.0619 14.3152 98.0619 14.5456 98.0235 14.7952H90.4587C90.6123 17.2144 91.8411 17.944 93.4923 17.944ZM93.4539 10.5712C91.8027 10.5712 90.7083 11.2624 90.4779 13.3936H96.2187C96.1227 11.4544 95.1627 10.5712 93.4539 10.5712Z" stroke="white" stroke-width="0.25"/>
</g>
<mask id="mask7_40287_23548" style="mask-type:luminance" maskUnits="userSpaceOnUse" x="29" y="4" width="78" height="16">
<path d="M106.097 4.61719H29.0967V19.6172H106.097V4.61719Z" fill="white"/>
<path d="M36.2983 19.3834C31.9975 19.3834 30.0967 16.465 30.0967 12.6634C30.0967 8.88096 32.1127 5.94336 36.6439 5.94336C40.5799 5.94336 42.4807 7.67136 42.8263 10.7818H40.7719C40.5031 8.65056 39.2743 7.57536 36.5671 7.57536C33.4759 7.57536 32.1703 9.34176 32.1703 12.6634C32.1703 15.9466 33.3991 17.7514 36.5863 17.7514C39.5815 17.7514 40.6375 16.0618 40.8871 14.1226H35.4919V12.6634H42.8071V19.057H41.0215V16.3498C40.4263 18.193 38.7751 19.3834 36.2983 19.3834Z" fill="black"/>
<path d="M47.9196 19.3069C45.9612 19.3069 44.7324 18.2509 44.7324 16.4845C44.7324 14.9485 45.5004 13.9501 47.6508 13.5853L50.0508 13.1821C50.9724 13.0285 51.3948 12.7405 51.3948 12.0685C51.3948 11.2045 50.934 10.6093 49.2828 10.6093C47.7084 10.6093 46.9596 11.2429 46.8636 12.4525H44.9436C44.9628 10.4173 46.4796 9.13086 49.206 9.13086C51.8556 9.13086 53.1612 10.3405 53.1612 12.1069V16.8685C53.1612 17.5789 53.1804 18.1549 53.2572 19.0573H51.51C51.4332 18.3085 51.3948 17.6557 51.3948 16.8877C51.0108 18.0973 49.9548 19.3069 47.9196 19.3069ZM48.3228 17.8285C50.3388 17.8285 51.3948 16.3117 51.3948 14.3917V13.8157C50.8764 14.1997 50.262 14.3533 49.686 14.4877L48.3612 14.7949C47.1708 15.0637 46.6524 15.5245 46.6524 16.4077C46.6524 17.3293 47.3244 17.8285 48.3228 17.8285Z" fill="black"/>
<path d="M62.0682 9.45703H63.9882V19.057H62.0682V16.9642C61.5114 18.3658 60.4746 19.3642 58.6698 19.3642C56.1162 19.3642 55.0986 17.9626 55.0986 15.4474V9.45703H57.0186V15.2746C57.0186 17.2906 57.9786 17.7706 59.265 17.7706C60.9738 17.7706 62.0682 16.369 62.0682 13.5082V9.45703Z" fill="black"/>
<path d="M71.6882 9.15039C74.2418 9.15039 75.1826 10.552 75.1826 13.0672V19.0576H73.2626V13.24C73.2626 11.224 72.341 10.744 71.1314 10.744C69.2498 10.744 68.213 11.9536 68.213 15.0064V19.0576H66.293V9.45759H68.213V11.608C68.789 10.1872 69.845 9.15039 71.6882 9.15039Z" fill="black"/>
<path d="M81.0943 19.0567C78.7711 19.0567 78.1951 18.1543 78.1951 16.2343V10.9351H76.3711V9.61983L78.1951 9.45671L79.1551 7.28711H80.1151V9.45671H83.1871V10.9351H80.1151V17.5207H82.9951V19.0567H81.0943Z" fill="black"/>
<path d="M84.8838 19.0572V5.61719H86.8038V19.0572H84.8838Z" fill="black"/>
<path d="M93.4923 17.944C95.2395 17.944 96.0075 17.1568 96.2763 16.1584H98.0427C97.8699 17.4832 96.8139 19.3648 93.4347 19.3648C90.0171 19.3648 88.5771 17.08 88.5771 14.2384C88.5771 11.4352 90.1515 9.15039 93.4347 9.15039C96.4875 9.15039 98.0619 11.32 98.0619 14.0656C98.0619 14.3152 98.0619 14.5456 98.0235 14.7952H90.4587C90.6123 17.2144 91.8411 17.944 93.4923 17.944ZM93.4539 10.5712C91.8027 10.5712 90.7083 11.2624 90.4779 13.3936H96.2187C96.1227 11.4544 95.1627 10.5712 93.4539 10.5712Z" fill="black"/>
<path d="M103.446 19.0567C101.123 19.0567 100.547 18.1543 100.547 16.2343V10.9351H98.7227V9.61983L100.547 9.45671L101.507 7.28711H102.467V9.45671H105.539V10.9351H102.467V17.5207H105.347V19.0567H103.446Z" fill="black"/>
</mask>
<g mask="url(#mask7_40287_23548)">
<path d="M103.446 19.0567C101.123 19.0567 100.547 18.1543 100.547 16.2343V10.9351H98.7227V9.61983L100.547 9.45671L101.507 7.28711H102.467V9.45671H105.539V10.9351H102.467V17.5207H105.347V19.0567H103.446Z" stroke="white" stroke-width="0.25"/>
</g>
</g>
<defs>
<clipPath id="clip0_40287_23548">
<rect width="106" height="24" fill="white" transform="translate(0.49707 0.5)"/>
</clipPath>
</defs>
</svg>
