<svg width="72" height="25" viewBox="0 0 72 25" fill="none" xmlns="http://www.w3.org/2000/svg">
<g clip-path="url(#clip0_40287_23538)">
<path d="M27.6957 14.5229V12.899H31.5425C32.1308 12.899 32.5898 12.7318 32.9191 12.3975C33.2483 12.0632 33.413 11.6225 33.413 11.0776C33.413 10.5326 33.2483 10.0832 32.9191 9.75758C32.5898 9.43193 32.1308 9.26912 31.5425 9.26912H26.4708V17.1922H24.8105V7.58984H31.5425C32.096 7.58984 32.5898 7.67125 33.0252 7.83407C33.4595 7.9969 33.8266 8.22595 34.1255 8.52119C34.4245 8.81646 34.6529 9.17466 34.811 9.59693C34.9692 10.0192 35.0483 10.4946 35.0483 11.0233C35.0483 11.5519 34.9692 12.0154 34.811 12.4431C34.6529 12.8697 34.4245 13.2377 34.1255 13.546C33.8266 13.8543 33.4606 14.0942 33.0252 14.2657C32.591 14.4372 32.096 14.5229 31.5425 14.5229H27.6957Z" fill="white"/>
<path d="M40.4967 17.19V13.5449L35.4121 7.58984H37.6647L41.3935 12.0133L45.1343 7.58984H47.2688L42.17 13.5449V17.19H40.4967Z" fill="white"/>
<path d="M53.039 17.19V9.26693H48.6328V7.58984H59.1245V9.26693H54.7121V17.19H53.039Z" fill="white"/>
<path d="M69.5918 7.58984H71.2585V17.19H69.5918V7.58984Z" fill="white"/>
<path d="M62.3991 17.19V13.0347H68.6001V11.5486H62.3991V7.58984H60.7324V17.19H62.3991Z" fill="white"/>
<path d="M12.8379 10.0999C12.8379 11.4253 11.7657 12.4999 10.4434 12.4999V14.9C13.0881 14.9 15.2325 12.7507 15.2325 10.0999C15.2325 7.44911 13.0881 5.2998 10.4434 5.2998C9.57155 5.2998 8.7528 5.5332 8.04883 5.94243C6.6171 6.77175 5.6543 8.32293 5.6543 10.0999V22.1001L7.80733 24.258L8.04883 24.5001V10.0999C8.04883 8.77449 9.12101 7.69985 10.4434 7.69985C11.7657 7.69985 12.8379 8.77449 12.8379 10.0999Z" fill="white"/>
<path d="M10.4434 0.5C8.69866 0.5 7.06332 0.96785 5.65431 1.78523C4.75216 2.30736 3.94424 2.97277 3.25977 3.75108C1.76955 5.44336 0.865234 7.66646 0.865234 10.1002V17.3003L3.25977 19.7003V10.1002C3.25977 7.96824 4.18467 6.05234 5.65431 4.73345C6.34527 4.11472 7.15645 3.62624 8.04886 3.31145C8.79721 3.04441 9.60406 2.90004 10.4434 2.90004C14.4105 2.90004 17.627 6.12397 17.627 10.1002C17.627 14.0763 14.4105 17.3003 10.4434 17.3003V19.7003C15.7339 19.7003 20.0215 15.4017 20.0215 10.1002C20.0215 4.79857 15.7339 0.5 10.4434 0.5Z" fill="white"/>
</g>
<defs>
<clipPath id="clip0_40287_23538">
<rect width="70.3929" height="24" fill="white" transform="translate(0.865234 0.5)"/>
</clipPath>
</defs>
</svg>
